<svg version="1.0" xmlns="http://www.w3.org/2000/svg" width="228" height="226.6666667" viewBox="0 0 171 170"><path d="M20.3 1c-5.8 1.2-9.4 3.3-13.5 7.8C.3 16 .5 13.9.5 85c0 52.1.3 65.2 1.4 68.4 1.7 4.9 7.3 11.1 12.5 13.9 4.1 2.2 4.5 2.2 68.5 2.5 56.2.2 65 .1 69.8-1.3 6.4-1.9 12.3-6.9 15.3-12.9 2-4.2 2-5.6 2-70.6 0-65.1 0-66.4-2.1-70.6-1.1-2.4-3.7-5.7-5.6-7.5C154.6.2 158 .5 88 .3 53.1.2 22.6.6 20.3 1zm59.5 44.2L80 79H10.9l.3-28.8c.3-25.9.5-29 2.2-31.8 4.1-6.8 6.3-7.2 39.1-7.1l27 .2.3 33.7zM148.5 12c2.5.6 5.2 2.2 7.3 4.4L159 20v59H91V45.7c0-18.4.3-33.7.7-34 1-1.1 52.3-.8 56.8.3zM80 125v34H51.8c-42.4-.1-40.2 2-40.6-37.8-.2-15.1-.1-28 .2-28.8.4-1.2 6.2-1.4 34.6-1.4h34v34zm79-4.9c0 41.3 2.5 38.9-40 38.9H91V91h68v29.1z"/><path d="M41.6 25.2c-1.1 1.5-1.6 4.5-1.6 8.5V40h-6.3C26.5 40 23 41.8 23 45.5c0 4.2 2.5 5.5 10.1 5.5H40v6.9c0 7.8 1.3 10.1 5.9 10.1 4.2 0 5.1-1.7 5.1-9.7V51h7.3c8 0 9.7-.9 9.7-5.1 0-4.6-2.3-5.9-10.1-5.9H51v-6.9c0-5-.4-7.4-1.6-8.5-2.2-2.3-6-2-7.8.6zM105.7 40.7c-2.9.7-4.1 5.1-2.2 7.9 1.5 2.4 1.6 2.4 21.4 2.4 17.9 0 19.9-.2 21.4-1.8 2.2-2.5 2.1-4.8-.3-7.2-1.9-1.9-3.2-2-20.2-1.9-10.1.1-19.1.3-20.1.6zM29 108.9c-1.8 3.5-1.1 5.6 4 10.6l5 4.9-5 5.1c-5.3 5.4-6.1 8.2-3.2 10.8 3 2.8 6 2 11.3-3l5-4.6 4.7 4.6c5 5 8.8 6 11.2 3.2 2.5-3 1.4-6.5-3.4-11.4l-4.6-4.7 3.6-3.4c2-1.9 4.2-4.8 5.1-6.3 1.3-2.5 1.3-3.1-.2-5.3-2.5-3.9-6.2-3.2-11.7 2.3l-4.8 4.7-4.8-4.7c-5.4-5.3-10.2-6.4-12.2-2.8zM121.2 103.2c-2.1 2.1-1.4 6.6 1.3 8.4 5.1 3.3 10.4-2.1 7.1-7.1-1.8-2.7-6.3-3.4-8.4-1.3zM103.6 121.2c-2.1 3-2 4.4.4 6.8 1.9 1.9 3.3 2 21 2s19.1-.1 21-2c2.5-2.5 2.6-5.2.2-7.3-1.6-1.5-4.6-1.7-21.5-1.7-19.1 0-19.6.1-21.1 2.2zM121.7 137.8c-2 2.2-2.2 6.3-.5 8 2 2 6.5 1.4 8.2-1 2.1-3 2-4.4-.4-6.8-2.5-2.5-5.2-2.6-7.3-.2z"/></svg>