<svg xmlns="http://www.w3.org/2000/svg" width="400" height="399.49874687">
  <g fill-rule="evenodd">
    <path d="M50.329.152c-.099.097-2.067.277-4.375.401-2.308.123-4.69.34-5.295.482-.769.18-1.099.1-1.099-.266 0-.372-.143-.341-.499.109-.275.347-1.219.757-2.098.911-.879.154-1.803.45-2.054.657-.251.207-1.015.416-1.698.464-.683.048-1.242.222-1.242.387-.001.165-.186.299-.412.299-.64 0-6.566 2.873-6.715 3.256-.073.187-.318.341-.544.341-.543 0-5.813 3.805-7.241 5.228-.618.616-1.357 1.031-1.641.922-.301-.115-.718.289-1 .969-.266.642-1.155 1.866-1.976 2.721-1.522 1.583-5.647 7.572-5.647 8.197 0 .19-.225.345-.499.345-.275 0-.524.416-.553.924-.029.509-.512 1.902-1.073 3.097-.561 1.195-1.141 2.668-1.29 3.275-.148.606-.422 1.197-.608 1.311-.185.115-.243.455-.128.755.115.301.026.66-.199.799-.224.139-.53 1.326-.678 2.638-.148 1.312-.409 2.385-.58 2.385-.17 0-.216.696-.102 1.547.124.924.028 1.657-.238 1.822-.635.392-.635 92.77 0 93.163.266.164.362.898.238 1.822-.114.85-.063 1.636.115 1.745.177.11.447 1.279.6 2.598.153 1.319.453 2.398.666 2.398.213 0 .273.36.133.799-.139.44-.081.8.129.8.21 0 .492.587.627 1.306.135.718.609 1.985 1.055 2.816.445.832.704 1.682.575 1.891-.129.209-.048.38.181.38.228 0 .528.45.666.999.138.55.378.999.533.999.525 0 1.611 2.778 1.351 3.455-.149.389-.094.571.129.433.547-.338.998.065 2.273 2.032 2.63 4.055 10.536 10.937 15.458 13.456.77.394 1.509.886 1.644 1.094.134.208.404.39.599.406.195.015.933.269 1.641.565.707.295 1.471.537 1.698.537.227 0 .412.199.412.443 0 .243.264.341.587.217.323-.124.683-.069.801.122s.933.469 1.811.617c.878.148 1.597.446 1.597.661 0 .216.358.278.795.139.438-.139 1.022-.113 1.298.058.277.171.773.332 1.103.357 1.748.135 2.03.209 1.859.483-.102.165.876.239 2.174.164 1.519-.087 2.361.02 2.361.3 0 .311 12.918.435 45.355.435 29.97 0 45.354-.135 45.354-.399 0-.22.911-.4 2.025-.4 1.113 0 2.378-.19 2.812-.422.926-.495 2.488-.115 2.1.512-.16.26-.08.318.201.144.257-.159.364-.458.236-.664-.38-.615.977-.9 1.645-.346.508.421.595.412.494-.055-.078-.365.199-.556.777-.536.495.018.899-.138.899-.346 0-.208.354-.286.786-.173.465.122.75.019.699-.253-.047-.252.228-.406.613-.341s.699-.051.699-.256c0-.206.495-.494 1.099-.641 2.749-.668 8.078-3.928 12.961-7.93.994-.814 1.923-1.48 2.065-1.48.328 0 1.839-1.499 1.913-1.898.133-.712 2.086-2.897 2.589-2.897.304 0 .552-.32.552-.711 0-.391.315-1.007.699-1.37.96-.906 1.475-1.64 1.631-2.327.072-.319.276-.671.452-.783.176-.112 1.007-1.643 1.846-3.401.838-1.758 1.67-3.257 1.847-3.331.178-.073.233-.279.123-.458-.11-.178.068-.837.395-1.464s.596-1.455.597-1.84c.001-.384.166-.699.365-.699.199 0 .273-.339.165-.754-.109-.415-.019-.865.199-1 .219-.134.309-.584.2-.999-.108-.414-.001-.874.238-1.022.238-.147.434-.887.434-1.643 0-.757.143-1.375.319-1.375.175 0 .244-1.169.153-2.598-.098-1.533-.006-2.597.224-2.597.548 0 .566-87.138.018-87.808-.225-.275-.335-1.741-.247-3.297.087-1.54.018-2.801-.154-2.801s-.313-.619-.313-1.375-.192-1.494-.427-1.639c-.235-.145-.318-.546-.186-.891s.077-.731-.122-.858c-.59-.377-.999-2.83-.472-2.83.25 0 .342-.182.204-.406-.138-.223-.418-.302-.623-.176-.205.127-.372-.151-.372-.616 0-.538.168-.743.461-.562.28.173.353.11.187-.158-.151-.245-.507-.355-.792-.245-.337.129-.698-.404-1.03-1.516-.281-.943-1.115-2.749-1.854-4.013-.738-1.264-1.224-2.298-1.079-2.298.145 0-.068-.242-.473-.538-.405-.297-.621-.727-.478-.957.142-.231.028-.507-.253-.615-.281-.108-1.025-.937-1.652-1.842-1.431-2.066-10.819-11.423-10.819-10.784 0 .057-1.259-.632-2.797-1.53-3.32-1.939-7.973-4.113-8.802-4.113-.324 0-.589-.199-.589-.443 0-.243-.277-.336-.615-.206-.338.13-.709-.011-.825-.313-.12-.315-.539-.462-.983-.346-.426.111-.774.006-.774-.234 0-.272-.452-.346-1.199-.196-.66.132-1.198.068-1.198-.141s-.54-.301-1.199-.204c-.692.101-1.199-.005-1.199-.25 0-.298-13.395-.434-44.747-.454C71.701.394 51.327.29 51.037.178c-.291-.112-.61-.123-.708-.026m208.612.706c0 .252-.499.358-1.199.256-.659-.097-1.199-.051-1.199.103s-.755.4-1.678.548c-.923.147-1.893.446-2.154.663-.262.217-1.08.434-1.818.482-.738.048-1.432.199-1.542.336-.225.279-6.279 3.147-6.61 3.13-.116-.006-.465.22-.773.503-.309.282-1.209.963-2.001 1.513-.791.549-2.105 1.507-2.921 2.129-1.752 1.337-8.073 7.445-8.08 7.808-.003.139-.704 1.005-1.558 1.924-.854.92-1.437 1.789-1.294 1.931.142.143-.09.514-.517.826-.426.311-.66.566-.52.566s-.361 1.089-1.113 2.419c-.752 1.331-1.58 3.129-1.84 3.996-.26.868-.599 1.577-.754 1.577-.155 0-.511 1.079-.791 2.398-.279 1.319-.639 2.398-.798 2.398-.159 0-.204.449-.099.999.113.59.006.999-.261.999-.249 0-.451.494-.448 1.099.01 2.525-.513 7.109-.834 7.313-.194.123-.186.779.018 1.493.223.776.221 1.362-.005 1.501-.547.338-.449 2.081.13 2.316.388.158.379.287-.043.583-.379.265-.409.462-.1.653.243.151.44.578.436.949-.004.453-.105.521-.305.206-.164-.259-.23.64-.145 1.998.386 6.187.442 74.371.061 74.752-.505.505-.533 2.242-.035 2.242.203 0 .338 1.483.3 3.296-.047 2.22.098 3.474.444 3.839.282.297.402.89.266 1.317-.135.427-.04 1.024.211 1.327.251.303.417.789.368 1.08-.048.291.121 1.035.376 1.654s.463 1.393.463 1.72c0 1.017 4.265 10.184 4.941 10.62.237.153.302.406.145.563-.157.158.073.537.511.844.835.585 1.152 1.978.336 1.474-.28-.173-.353-.11-.187.158.151.245.524.348.83.231.311-.119.752.153 1 .617.245.456.303.837.131.846-.173.009.136.262.685.562.549.3 1.449 1.277 1.998 2.171.549.894 1.224 1.63 1.499 1.636.274.006.499.28.499.61 0 .33.242.599.537.599.467 0 1.876 1.069 4.218 3.197.362.33 1.329.955 2.148 1.39.819.434 1.489.898 1.489 1.03 0 .133.944.674 2.098 1.204 1.153.53 2.187 1.074 2.297 1.209.11.135.919.475 1.798.754.88.279 2.318.828 3.197 1.219.879.391 2.453.839 3.497.994 1.044.156 1.898.411 1.898.568 0 .157.518.209 1.151.116.634-.093 1.274.028 1.423.269.148.241 1.339.438 2.644.438 1.317 0 2.374.178 2.374.4 0 .264 15.385.399 45.355.399 32.057 0 45.355-.126 45.355-.429 0-.26.75-.39 1.898-.33 1.044.054 2.316-.126 2.828-.401s1.18-.404 1.486-.287c.305.118.67.027.811-.201.141-.228.686-.307 1.212-.175.525.132.955.073.955-.132 0-.205.719-.494 1.597-.642.878-.148 1.693-.426 1.811-.617.118-.191.478-.246.801-.122.323.124.587.026.587-.217 0-.244.185-.443.412-.443.227 0 1.039-.262 1.805-.582.767-.32 1.505-.574 1.641-.565.137.009.358-.134.492-.317.135-.184.964-.693 1.843-1.132.879-.439 1.798-.979 2.04-1.199.53-.481 5.61-4.227 6.513-4.804.966-.616 4.035-3.596 4.035-3.917 0-.155.764-1.239 1.698-2.409.934-1.17 1.92-2.471 2.191-2.892.27-.42.929-1.424 1.464-2.23.535-.807.868-1.571.74-1.699-.128-.127-.042-.232.19-.232.233 0 .536-.449.674-.999.138-.549.438-.999.666-.999.229 0 .31-.171.181-.38s.13-1.059.575-1.891c.446-.831.92-2.098 1.055-2.816.135-.719.417-1.306.627-1.306.21 0 .273-.345.139-.766-.133-.421-.064-.876.155-1.011.218-.135.519-1.319.667-2.631.148-1.312.409-2.386.58-2.386.17 0 .216-.696.102-1.546-.124-.924-.028-1.658.238-1.822.636-.393.635-92.371 0-92.764-.271-.167-.369-.962-.249-2.022.108-.96.057-1.746-.115-1.746-.171 0-.436-1.079-.589-2.398-.153-1.319-.444-2.5-.645-2.625-.202-.125-.259-.402-.127-.616.133-.215.03-.644-.227-.954-.258-.311-.353-.752-.211-.982.142-.229.047-.417-.212-.417-.273 0-.382-.334-.261-.799.115-.44.07-.799-.101-.799-.45 0-2.46-4.794-2.192-5.228.125-.202-.009-.367-.297-.367s-.969-.854-1.512-1.898c-.544-1.044-1.084-1.988-1.201-2.098-.116-.109-.732-.919-1.369-1.798s-1.592-2.021-2.123-2.538c-.53-.518-.868-1.192-.751-1.499.118-.307-.007-.558-.278-.558s-1.659-1.045-3.084-2.323c-1.426-1.278-3.626-3.003-4.89-3.835-1.263-.832-2.297-1.675-2.297-1.873 0-.198-.135-.318-.3-.266-.165.051-2.098-.793-4.296-1.878-2.198-1.084-4.207-1.931-4.465-1.882-.258.05-.579-.087-.712-.303-.134-.216-.507-.291-.83-.167-.322.123-.586.043-.586-.18 0-.223-.899-.529-1.998-.68-1.099-.151-1.998-.433-1.998-.627 0-.193-.518-.248-1.151-.122-.642.129-1.267.041-1.416-.2-.376-.609-99.731-.6-99.731.009M137.862 12.419c0 .271.443.334 1.189.171.654-.144 1.418-.113 1.698.068.281.181.869.329 1.309.329.44 0 .756.218.704.485-.055.281.156.389.502.256.697-.268 4.189.686 4.189 1.144 0 .172.134.288.299.258.539-.097 3.697 1.366 3.697 1.714 0 .186.269.339.599.339.33 0 .599.264.599.587 0 .327.238.495.537.381.763-.293 4.735 3.121 4.128 3.549-.279.196-.133.237.36.1.86-.24 3.99 2.69 3.581 3.351-.104.169.273.517.837.774.654.298.943.681.799 1.057-.125.325-.047.59.173.59.22 0 .515.301.656.669.141.368.597 1.009 1.012 1.424.415.415.682.968.592 1.229-.089.261.198.79.639 1.176.44.386.69.812.556.947-.135.135.03.52.366.856.336.337.528.933.425 1.326-.103.392.06.808.362.924.301.116.442.487.312.825-.129.338-.024.614.234.614.287 0 .371.31.216.8-.156.49-.072.799.216.799.298 0 .38.355.225.974-.135.536-.053 1.093.18 1.237.234.145.378.65.322 1.124-.057.473.112 1.253.376 1.733.691 1.261.694 91.694.002 92.96-.263.48-.431 1.35-.374 1.932.057.583-.08 1.173-.305 1.312-.224.138-.306.518-.181.844.125.325.002.863-.274 1.195-.276.332-.387.718-.248.858.139.139.069.475-.157.747-.225.272-.37.648-.322.836.049.188-.214 1.038-.585 1.889-.37.851-.674 1.705-.674 1.898 0 .193-.19.351-.423.351-.233 0-.329.153-.213.339.115.187-.151.726-.592 1.199-.44.473-.659.862-.486.866.174.003.136.138-.084.299-.22.162-.743.923-1.162 1.693-.878 1.608-.984 1.741-4.07 5.104-1.266 1.379-2.494 2.443-2.73 2.363-.236-.08-.75.378-1.141 1.018s-.914 1.096-1.163 1.013c-.248-.083-.895.26-1.437.762-.541.503-1.142.816-1.334.697-.192-.118-.349-.043-.349.167 0 .524-3.159 2.133-3.623 1.846-.205-.127-.373-.04-.373.193s-.225.424-.5.425c-.275.002-1 .264-1.611.583-.611.318-1.375.478-1.698.354-.323-.124-.587-.026-.587.217 0 .607-1.085.56-1.334-.057-.113-.28-.215-.169-.233.252-.027.644-.262.721-1.63.538-.879-.118-1.598-.052-1.598.147 0 .214-19.21.362-46.953.362-25.824 0-46.953-.137-46.953-.304 0-.167-1.096-.318-2.435-.337-1.522-.02-2.555-.226-2.753-.546-.175-.283-.519-.39-.765-.238-.245.152-.543.025-.661-.282s-.733-.558-1.366-.558c-1.271 0-6.406-2.468-6.406-3.079 0-.211-.112-.272-.249-.135-.358.358-2.948-1.705-2.948-2.349 0-.296-.241-.447-.535-.334-.673.259-5.702-4.872-5.541-5.654.064-.314-.166-.57-.512-.57s-.748-.315-.892-.699c-.144-.385-.492-.879-.772-1.099-.786-.617-3.785-6.59-3.522-7.016.128-.207.066-.377-.138-.377-.204 0-.582-.854-.84-1.898s-.624-2.391-.815-2.993c-.19-.602-.247-1.474-.125-1.939.121-.464.06-.961-.137-1.103-.207-.15-.273-14.649-.157-34.624.11-18.901.102-39.94-.018-46.754-.119-6.813-.067-12.595.117-12.848.185-.254.223-.909.086-1.455-.139-.555-.059-1.112.182-1.261.238-.147.432-.706.432-1.242 0-.537.163-.976.363-.976.199 0 .268-.359.153-.799-.115-.44-.025-.799.2-.799.224 0 .314-.36.199-.799-.128-.493-.012-.8.304-.8.282 0 .409-.103.283-.23-.619-.618 2.922-6.853 5.192-9.144.494-.499.899-1.061.899-1.248 0-.696 4.116-4.491 4.649-4.287.307.118.546-.044.546-.37 0-.32.359-.906.799-1.304.439-.398.802-.561.805-.362.004.199.138.162.3-.082.161-.244.833-.744 1.492-1.112.66-.367 1.986-1.108 2.947-1.647.961-.538 1.89-.891 2.064-.783.173.107.381-.003.462-.244.08-.242.635-.467 1.233-.502.597-.035 1.086-.219 1.086-.409 0-.191.45-.261.999-.156.7.134.999.015.999-.396 0-.427.273-.519.999-.337.632.159.999.082.999-.208 0-.302.48-.382 1.399-.233.769.125 1.399.058 1.399-.148 0-.23 17.942-.374 46.753-.374 33.197 0 46.753.125 46.753.431m220.55.32c.195.316.552.419.839.242.309-.191.796.056 1.278.648.429.526.663.732.521.457-.166-.322.035-.5.565-.5.452 0 .823.191.823.424 0 .232.159.324.353.204.865-.534 9.481 3.935 10.787 5.595.419.534.95.97 1.178.97.576 0 6.041 6.032 7.14 7.88 1.853 3.117 3.31 6.197 3.095 6.545-.123.198-.012.36.247.36.273 0 .382.335.261.8-.115.439-.086.799.065.799.405 0 1.261 2.455 1.002 2.873-.121.197-.006.618.257.935.264.318.372 1.002.242 1.522-.131.52-.125 1.057.012 1.194.38.38.384 94.175.004 94.175-.182 0-.214.535-.07 1.189.143.654.118 1.418-.058 1.698-.175.281-.333.69-.351.909-.099 1.21-1.137 4.196-1.458 4.196-.207 0-.271.17-.143.377.28.453-2.765 6.428-3.598 7.06-.321.244-.584.647-.584.896 0 .248-.359.676-.799.951-.44.274-.799.716-.799.982 0 1.255-7.263 7.403-10.61 8.982-1.088.512-2.068 1.041-2.177 1.174-.382.461-3.184 1.212-3.589.962-.224-.139-.407.049-.407.417 0 .473-.235.609-.8.461-.439-.115-.799-.025-.799.2s-.449.323-.999.218c-.549-.105-.999-.014-.999.204 0 .238-.645.292-1.628.135-1.069-.171-1.541-.12-1.375.149.153.247-.27.41-1.069.412-37.675.094-92.846-.087-93.009-.306-.122-.163-1.198-.339-2.392-.39-1.193-.052-2.297-.3-2.453-.551-.155-.251-.49-.329-.744-.172-.254.157-.679.114-.944-.096-.265-.21-1.201-.612-2.08-.894-2.739-.876-8.629-4.434-9.013-5.444-.205-.539-.577-.84-.89-.72-.458.176-3.155-2.412-5.478-5.259-2.296-2.812-5.319-8.445-5.061-9.43.103-.395.024-.618-.175-.495-.199.124-.362-.135-.362-.575 0-.439-.183-.912-.406-1.05-.224-.138-.298-.426-.166-.641.133-.214.031-.642-.226-.952-.257-.309-.35-.931-.207-1.381.161-.508.081-.818-.211-.818-.298 0-.413-.49-.314-1.336.088-.756-.064-1.541-.349-1.808-.979-.914-.708-93.571.271-92.966.162.1.209-.26.106-.799s-.05-1.298.117-1.686c.168-.388.265-1.111.217-1.605-.049-.495.088-.899.303-.899s.296-.36.181-.799c-.124-.478-.012-.8.28-.8.269 0 .388-.264.264-.586-.124-.323-.053-.693.157-.823s.382-.572.382-.983c0-.411.315-1.062.7-1.447.384-.384.659-.754.611-.822-.225-.316 1.492-3.643 2.357-4.565.534-.569.902-1.241.818-1.493-.084-.252.305-.667.865-.922s.936-.597.835-.759c-.168-.272 2.327-2.971 4.046-4.377 2.079-1.701 5.354-3.962 5.359-3.701.003.164.138.094.3-.156.23-.356 2.364-1.479 3.69-1.94.11-.039.702-.278 1.316-.533.614-.254 1.603-.579 2.198-.721.595-.142 1.304-.433 1.576-.647.272-.214.76-.287 1.086-.162.325.125.708.039.85-.191.151-.244.821-.313 1.611-.164.854.16 1.353.095 1.353-.175 0-.714 95.831-.372 96.274.344m-76.886 46.415c.134.215-.083.507-.482.647-.872.306-3.322 2.551-3.322 3.043 0 .193-.241.591-.535.885-.574.574-.428 3.004.181 3.004.195 0 .354.224.354.497 0 .274 5.167 5.667 11.483 11.985l11.483 11.488-11.383 11.519c-14.123 14.293-13.937 14.018-11.383 16.772.55.593 1.001 1.259 1.004 1.481.018 1.602 6.428 2.348 7.268.846.198-.353.529-.642.735-.642.207 0 .918-.566 1.579-1.258.661-.692 1.202-1.154 1.202-1.028 0 .126.899-.66 1.998-1.748 1.099-1.087 1.998-2.153 1.998-2.368 0-.215.276-.391.613-.391.336 0 .741-.347.899-.772.157-.425.913-1.195 1.679-1.71.766-.516 1.575-1.293 1.798-1.726.223-.433.631-.787.905-.787.275 0 .512-.18.526-.399.015-.22.419-.61.899-.867.48-.257.873-.625.873-.817 0-.495 3.341-3.711 3.855-3.711.235 0 .326-.261.204-.579-.134-.35.086-.677.557-.826.428-.136.779-.505.779-.82 0-.315.269-.572.599-.572.33 0 .6-.27.6-.6 0-.329.136-.599.302-.599.474 0 22.475 22.132 22.475 22.608 0 .262 1.039.415 2.697.397 2.793-.029 5.781-1.398 5.413-2.479-.085-.249.135-.743.489-1.096.353-.354.558-.779.455-.946-.103-.167-.245-1.1-.315-2.073-.126-1.736-.348-1.991-11.451-13.153l-11.322-11.384 1.123-.974c.617-.536 1.078-1.136 1.023-1.332-.055-.197.169-.357.499-.357.33 0 .6-.281.6-.623 0-.343.184-.509.41-.369.462.285 1.953-1.323 1.974-2.129.007-.287.184-.417.393-.288.208.129.574-.13.813-.576.238-.446.697-.811 1.019-.811.322 0 .585-.145.585-.322 0-.614 2.176-2.946 3.284-3.518.611-.317 1.112-.829 1.112-1.138 0-.309.375-.681.833-.826.458-.146 1.012-.776 1.229-1.402.266-.763.592-1.062.989-.909.381.146.673-.077.816-.624.122-.468.465-.851.762-.851.316 0 .445-.249.311-.599-.142-.369 0-.6.369-.6.33 0 .704-.271.831-.603.127-.332.461-.556.742-.499.281.057.513-.199.516-.569.002-.37.384-1.089.849-1.599 1.228-1.347 1.743-2.505 1.743-3.923 0-.688.184-1.595.409-2.015.32-.598.288-.717-.148-.55-.57.219-1.221-.848-.867-1.42.108-.175-.341-.54-.998-.812-.656-.272-1.193-.663-1.193-.869 0-.206-.181-.263-.403-.126-.221.137-.493.013-.603-.276-.257-.669-2.753-.62-3.586.071-.342.284-.704.435-.804.335-.1-.1-5.261 4.91-11.469 11.132-6.209 6.223-11.429 11.314-11.601 11.314-.171 0-5.39-5.08-11.597-11.289s-11.554-11.348-11.882-11.421c-.327-.072-.687-.252-.799-.399-.334-.44-3.263-.494-2.993-.055M54.004 84.726c-.517.432-1.081.697-1.253.591-.172-.106-.535.074-.807.402-.271.327-.724.595-1.005.595-1.085 0-2.406 5.613-1.588 6.749.947 1.316 3.099 3.241 3.625 3.241.314 0 .57.187.57.415 0 .23.76.395 1.699.37.934-.025 17.786-.015 37.449.024 25.709.05 35.792-.053 35.897-.37.081-.241.492-.439.913-.439.421 0 .766-.201.766-.446 0-.264.419-.367 1.022-.251.756.144.967.051.81-.358-.217-.566.505-2.542.929-2.541.13 0 .214-.795.188-1.766-.064-2.389-1.309-4.261-3.7-5.563l-1.97-1.072-36.164.104c-19.89.058-36.081-.03-35.979-.195.351-.568-.463-.272-1.402.51M42.496 218.282c-.102.165-.807.299-1.566.299s-1.743.225-2.186.5c-.653.404-.87.398-1.138-.034-.263-.422-.386-.392-.592.146-.169.439-.54.605-1.055.47-.437-.114-.794-.024-.794.201s-.36.315-.799.2c-.44-.115-.8-.025-.8.2s-.359.315-.799.199c-.44-.115-.699-.045-.576.154.286.463-1.746 1.255-2.316.903-.238-.147-.313-.079-.169.154.146.236-.218.538-.834.693-.6.15-1.183.394-1.296.542-.112.147-.833.592-1.602.987-3.591 1.848-5.562 3.211-8.43 5.835-2.929 2.68-3.967 3.422-3.32 2.375.178-.288.109-.353-.183-.172-.257.159-.363.459-.234.667.128.207-.696 1.409-1.832 2.669-1.135 1.261-2.255 2.697-2.488 3.192-.234.494-.554.899-.711.899-.158 0-.511.539-.784 1.198-.273.66-.655 1.199-.848 1.199-.193 0-.321.135-.285.3.036.165-.412 1.289-.995 2.497-.584 1.209-1.063 2.423-1.065 2.698-.002.274-.167.499-.366.499-.2 0-.594.899-.875 1.998-.282 1.099-.67 1.998-.863 1.998-.193 0-.237.361-.097.801.169.532.044.882-.37 1.041-.344.132-.536.384-.427.56.241.391-.509 6.12-1.021 7.801-.579 1.899-.521 92.043.059 92.742.273.329.376 1.216.25 2.154-.118.877-.074 1.595.096 1.595.171 0 .432 1.073.58 2.385.148 1.312.454 2.499.678 2.638.225.139.314.498.199.798-.115.301-.03.657.189.793.219.135.289.591.155 1.012-.145.457-.054.765.227.765.258 0 .365.27.239.6-.127.329-.077.599.11.599.296 0 .762 1.136.764 1.863.001.135.152.355.335.49.37.271 1.613 2.838 1.644 3.396.011.196.177.465.368.6.869.611 3.364 4.941 3.157 5.48-.127.33-.059.494.15.365.565-.349 2.106 1.36 1.844 2.043-.125.325-.059.486.145.36.205-.126 1.624.988 3.155 2.477 2.87 2.79 7.205 6.133 9.039 6.969.573.261.955.703.848.983-.112.292.021.425.314.312.28-.107 1.87.442 3.533 1.221 1.663.779 3.583 1.527 4.266 1.664.683.137 1.242.386 1.242.554 0 .168.224.294.499.28.911-.045 3.097.608 3.097.926 0 .171.357.218.793.104.437-.114 1.111-.071 1.499.095.388.166 1.424.357 2.303.425 4.008.309 95.16.331 95.597.023.271-.19 1.215-.277 2.098-.193.883.085 1.606-.007 1.606-.202 0-.196.54-.277 1.199-.18.659.097 1.199.028 1.199-.154s.439-.331.975-.331c.537 0 1.094-.192 1.239-.426.145-.235.51-.333.81-.218.301.116.66.026.8-.199.139-.226.504-.313.812-.195.307.118.559.04.559-.173s.224-.388.499-.389c.275-.002 1.013-.271 1.64-.598.627-.327 1.302-.495 1.499-.373.196.121.358.02.358-.226s.164-.345.365-.221c.201.125.431.029.512-.213.08-.241.62-.467 1.199-.502.579-.034 1.024-.201.987-.37-.037-.168.653-.708 1.532-1.198.879-.491 1.808-1.162 2.065-1.491.257-.33.6-.466.764-.302.163.163.547-.062.854-.501.307-.438.798-.796 1.092-.796.294 0 .634-.261.756-.579.122-.318.816-.885 1.541-1.26 1.66-.857 3.715-2.889 4.078-4.033.152-.48.9-1.42 1.662-2.089.762-.669 1.41-1.354 1.44-1.523.064-.357 2.011-3.408 2.363-3.703.132-.11.573-.964.98-1.898.407-.934.886-1.698 1.063-1.698.178 0 .29-.135.249-.3-.041-.165.257-1.019.663-1.898.405-.879.769-1.689.807-1.798.038-.11.279-.706.536-1.325.256-.619.466-1.383.466-1.698 0-.316.183-.574.407-.574.235 0 .301-.423.156-.999-.144-.574-.078-.999.155-.999.223 0 .317-.339.208-.754-.108-.415-.001-.875.238-1.023.238-.147.434-.887.434-1.643s.146-1.375.325-1.375c.179 0 .248-1.074.153-2.386s-.044-2.706.114-3.097c.457-1.133.508-75.35.052-75.966-.264-.357-.242-.623.07-.816.47-.291.448-10.358-.026-11.641-.122-.33-.33-2.204-.462-4.164-.133-1.961-.394-3.759-.581-3.996-.542-.689-1.348-4.577-1.089-5.252.135-.352.067-.511-.159-.372-.217.135-.395-.036-.395-.378 0-.343-.18-.623-.4-.623-.575 0-.493-1.095.1-1.334.343-.138.312-.213-.1-.238-.608-.038-3.043-4.607-2.941-5.521.03-.275-.096-.5-.281-.5-.331 0-2.626-3.115-2.722-3.696-.164-.991-7.686-8.644-9.94-10.112-1.154-.752-2.098-1.633-2.098-1.958 0-.362-.233-.503-.599-.362-.33.126-.599.031-.599-.213 0-.243-.276-.442-.613-.442-.336 0-.775-.405-.973-.899-.199-.495-.373-.674-.387-.4-.035.679-.639.629-1.381-.114-.338-.337-.755-.606-.928-.596-.173.01-.613-.239-.979-.552-.366-.314-.762-.474-.879-.357-.117.117-.99-.164-1.941-.625-.951-.46-2.309-.952-3.018-1.094-.709-.142-1.289-.41-1.289-.595 0-.186-.261-.237-.58-.115-.319.123-.814.079-1.099-.097-.285-.176-.878-.327-1.318-.335-.439-.008-.769-.195-.733-.415.039-.234-.667-.342-1.698-.259-.971.077-1.765-.013-1.765-.2 0-.418-97.106-.458-97.364-.04m217.533.044c.117.189-.604.279-1.603.2-1.068-.085-1.789.02-1.749.255.036.22-.293.411-.733.424-.44.014-1.105.165-1.479.336-.374.17-.869.194-1.099.051-.231-.142-.419-.068-.419.165 0 .232-.315.429-.699.436-.385.008-1.419.361-2.298.786-.879.425-1.778.778-1.997.786-.82.028-7.159 3.451-8.33 4.498-.669.599-1.286 1.018-1.372.932-.086-.085-.5.189-.922.611-.421.421-1.035.765-1.365.765-.33 0-.599.174-.599.387 0 .212-1.484 1.911-3.297 3.774-3.604 3.703-4.697 4.923-4.691 5.233.004.209-2.038 3.44-2.398 3.793-.485.476-3.201 6.377-3.201 6.955 0 .351-.15.638-.333.638-.183 0-.355.224-.381.499-.122 1.264-1.049 4.296-1.314 4.296-.162 0-.206.339-.097.754.108.415.001.875-.238 1.023-.238.147-.434.887-.434 1.643s-.135 1.375-.3 1.374c-.165 0-.239 1.074-.165 2.386.075 1.313-.038 3.198-.249 4.189-.22 1.028-.231 1.708-.026 1.581.211-.13.313 18.511.249 45.311-.086 36.204-.005 45.629.395 46.003.36.336.388.685.097 1.228-.312.583-.252.845.256 1.129.429.24.584.67.44 1.22-.123.468-.039.85.186.85s.315.36.2.799c-.115.44-.025.8.2.8s.323.449.218.999c-.105.549-.08.999.055.999.136 0 .463.494.728 1.098 1.113 2.544 1.719 4.109 1.682 4.349-.021.142.114.367.299.502.186.134.696.964 1.133 1.843.438.879.904 1.688 1.036 1.798.132.11.471.649.754 1.199.283.549.752 1.269 1.042 1.598 2.628 2.987 3.349 3.981 3.229 4.45-.076.3-.063.408.03.24.094-.168 1.68 1.066 3.527 2.742 1.846 1.677 3.241 3.235 3.1 3.464-.147.238-.065.297.192.139.451-.279 2.679.666 2.935 1.244.181.411 2.118 1.564 4.331 2.579 4.041 1.853 5.171 2.325 5.573 2.325.232 0 .421.174.421.387 0 .213.252.291.559.173.308-.118.673-.031.812.195.14.225.499.315.8.199.3-.115.665-.017.81.218.145.234.702.426 1.239.426.536 0 .977.135.979.3.002.165 1.279.348 2.838.407 1.559.06 3.13.257 3.493.438.845.424 131.889.301 132.843-.125.394-.175.813-.223.932-.104.335.335 2.947-2.732 2.947-3.462 0-.358.18-.65.4-.65.595 0 .549-132.128-.046-132.496-.266-.165-.362-.898-.238-1.822.123-.915.042-1.547-.198-1.547-.227 0-.333-.612-.242-1.398.09-.769-.001-1.399-.202-1.399s-.282-.44-.179-.979c.11-.576-.023-1.059-.322-1.174-.293-.113-.418-.545-.294-1.019.132-.503.024-.824-.277-.824-.296 0-.41-.319-.284-.799.115-.44.046-.799-.153-.799s-.362-.235-.362-.521c0-.762-4.576-9.706-5.374-10.504-.547-.547-.576-.745-.15-1.015.41-.26.383-.337-.123-.342-.358-.003-1.347-.859-2.197-1.901-1.945-2.384-6.83-7.123-8.937-8.671-.881-.646-1.601-1.331-1.601-1.522 0-.191-.19-.229-.423-.085-.233.144-1.087-.187-1.898-.736-.811-.548-1.88-1.117-2.374-1.264-.495-.146-.899-.434-.899-.639 0-.205-.257-.373-.571-.373-.314 0-.809-.224-1.099-.499-.291-.275-.753-.518-1.028-.54-1.49-.119-1.698-.205-1.698-.703 0-.373-.333-.481-1.058-.342-.681.13-.966.052-.799-.218.162-.262-.042-.341-.54-.211-.44.115-.8.014-.8-.225 0-.238-.261-.333-.58-.211-.319.123-.814.073-1.099-.109-.285-.183-.878-.378-1.318-.434-2.973-.374-4.196-.621-4.196-.845 0-.142-22.01-.258-48.913-.258-27.235 0-48.818.152-48.7.344m-123.471 11.728c.102.307.587.399 1.32.252 1.408-.281 6.378.603 6.378 1.135 0 .21.359.267.799.127.44-.139.799-.085.799.121 0 .206.809.602 1.798.878.989.277 1.799.66 1.799.852 0 .191.134.31.299.265.397-.109 2.912 1.239 3.606 1.932.301.301.714.548.918.548.204 0 .371.28.371.623 0 .342.181.511.402.374.567-.35 4.073 2.615 3.833 3.242-.124.323.018.433.381.293.319-.122.579-.062.579.133s.899 1.298 1.998 2.45c1.099 1.152 1.998 2.345 1.998 2.651 0 .306.166.617.37.69.203.073.428.396.499.717.072.321.439.933.816 1.359.377.427.591.928.476 1.115-.116.186-.056.339.133.339.429 0 1.459 2.774 1.146 3.087-.127.127.044.431.38.677.336.245.669.893.74 1.438.071.545.263 1.306.425 1.691.163.385.192.969.065 1.299-.126.329-.079.599.106.599.862 0 .997 6.869.977 49.75-.02 43.671-.134 49.351-.988 49.351-.2 0-.252.45-.114.999.164.655.083.999-.235.999-.28 0-.382.269-.242.635.134.35.113.844-.046 1.099-.16.255-.309.644-.33.863-.161 1.629-2.844 6.679-5.384 10.134-3.457 4.702-9.189 9.385-13.317 10.877-.803.291-1.461.649-1.461.796 0 .147-.854.484-1.898.749s-2.204.644-2.579.843c-.419.222-.774.211-.923-.03-.347-.563-1.012-.483-.894.108.066.327-.349.479-1.198.44-.715-.032-1.299.058-1.299.2 0 .302-95.493.204-95.795-.098-.112-.112-.7-.104-1.307.017-.611.122-1.224.025-1.375-.219-.149-.242-.051-.44.218-.44.27 0 .375-.116.233-.257-.141-.141-.538-.023-.882.263-.475.394-.739.407-1.089.057-.254-.254-.786-.463-1.182-.463-.395 0-.719-.174-.719-.387 0-.213-.256-.289-.568-.169-1.021.392-2.594-.688-1.621-1.113.688-.3.668-.322-.152-.163-.93.179-2.842-.349-3.245-.898-.115-.156-.658-.513-1.207-.794-.55-.281-1.539-.801-2.198-1.155-1.02-.549-7.746-7.065-9.194-8.907-1.243-1.581-2.207-4.298-1.334-3.758.28.173.353.11.187-.159-.151-.244-.515-.351-.809-.238-.753.288-1.155-1.014-.545-1.767.412-.509.408-.566-.02-.309-.617.372-1.742-.897-1.473-1.661.097-.275-.019-.5-.258-.5-.238 0-.34-.359-.225-.799.115-.439.055-.799-.135-.799-.189 0-.452-.674-.584-1.499-.131-.824-.409-1.81-.617-2.192-.529-.972-.47-1.901.122-1.916.305-.008.227-.22-.2-.544-.67-.508-1.056-4.548-.489-5.115.26-.26.166-83.634-.098-86.548-.108-1.192-.007-2.331.231-2.618.232-.28.316-.916.186-1.413-.13-.498-.051-1.298.176-1.778.226-.48.72-2.086 1.097-3.57.376-1.483.844-2.697 1.039-2.697.196 0 .355-.264.355-.586 0-.811 1.275-3.41 1.673-3.41.179 0 .325-.253.325-.563 0-1.212 6.934-9.235 7.617-8.813.14.087.492-.286.782-.828.29-.542.677-.985.86-.985.182 0 .413-.009.512-.021.099-.012.749-.553 1.445-1.203.696-.65 1.694-1.289 2.218-1.421.523-.131.952-.364.952-.516 0-.153.944-.609 2.098-1.015 1.154-.406 2.315-.906 2.58-1.112.265-.207.67-.259.899-.117.229.141.417.046.417-.212 0-.27.333-.383.78-.266.429.112.844.013.922-.221.081-.243 1.37-.438 3.015-.457 1.58-.018 2.874-.154 2.874-.303.004-.85 90.722-.895 91.005-.045m217.022-.423c.713.191.807.337.4.618-.341.235.054.279 1.097.121 1.873-.284 6.961.493 6.961 1.063 0 .21.172.276.383.145.211-.13.706-.067 1.099.141.394.208 1.795.881 3.113 1.495 4.11 1.915 6.73 3.691 9.791 6.635 2.564 2.466 5.994 6.983 5.994 7.894 0 .225.144.409.32.409.176 0 .713.809 1.193 1.798.481.989.696 1.798.479 1.798-.217 0-.38.315-.362.7.018.417.112.498.233.199.11-.274.385-.499.61-.499.225 0 .306.27.179.599-.126.33-.064.6.139.6s.491.674.639 1.498c.149.824.433 1.705.632 1.956.199.252.326.611.284.799-.043.188.061.66.231 1.048s.223 1.153.119 1.698c-.105.546-.015.993.198.993.235 0 .308 1.222.185 3.097-.265 4.059-.34 121.367-.078 122.051.167.433-10.956.526-63.139.526-34.838 0-63.341-.138-63.341-.307 0-.169-.439-.197-.976-.063-.537.135-1.212.099-1.499-.081-.287-.179-.702-.367-.922-.417-2.087-.477-5.234-1.464-5.394-1.691-.11-.156-.829-.533-1.599-.838-.769-.304-1.488-.667-1.598-.806-.11-.139-1.001-.688-1.981-1.221-2.267-1.234-7.289-5.707-9.008-8.024-.22-.296-.903-1.213-1.519-2.037-.615-.824-.975-1.501-.799-1.504.176-.004.115-.138-.136-.3-.602-.387-2.941-5.011-2.941-5.814 0-.344-.182-.739-.406-.877-.223-.138-.302-.418-.176-.623.127-.205.02-.372-.237-.372-.298 0-.375-.361-.215-.999.157-.626.081-.999-.203-.999-.269 0-.376-.408-.263-.999.105-.549.059-.999-.101-.999-.815 0-.955-7.427-.935-49.75.02-43.102.139-49.351.943-49.351.176 0 .226-.361.11-.801-.115-.441-.01-1.042.234-1.336.244-.294.329-.648.19-.787s-.042-.509.217-.82c.259-.312.42-.811.357-1.109-.063-.298.092-.503.345-.455.271.051.374-.234.253-.7-.113-.432-.043-.785.155-.785.199 0 .392-.402.429-.893.037-.492.255-.956.484-1.033.23-.076.418-.381.418-.676 0-.296.315-.853.699-1.237.385-.385.628-.776.541-.87-.086-.093.046-.466.294-.827.248-.362.863-1.287 1.367-2.057.503-.769 1.305-1.571 1.782-1.783.477-.212.965-.772 1.083-1.245.216-.861 3.363-3.764 5.622-5.189.66-.415 1.289-.867 1.399-1.004.447-.557 2.041-1.189 2.416-.957.22.136.352.01.291-.281-.06-.291.115-.485.39-.43.275.055.499-.06.499-.255 0-.196.81-.595 1.799-.887.989-.292 1.798-.69 1.798-.886 0-.195.3-.24.667-.099.367.141.793.054.946-.193.152-.248 1.02-.479 1.927-.514.908-.034 1.651-.198 1.652-.362.002-.165.733-.3 1.625-.3s1.527.154 1.41.342c-.116.188.25.254.813.146.689-.132.86-.297.522-.505-1.107-.685 87.347-1.198 89.872-.522M89.307 266.54c-.138.223-.419.303-.623.176-.205-.126-.372-.02-.372.236 0 .257-.279.359-.62.228-.356-.136-.516-.069-.376.157.134.218-.047.395-.403.395-.356 0-.544.166-.419.368.124.202-.058.651-.405.999-.347.347-.493.631-.323.631.169 0 .092.216-.172.48-.356.357-.479 4.524-.479 16.284v15.804l-15.232-.11c-8.378-.06-15.436.043-15.685.228-.248.185-1.216.578-2.15.873-1.452.458-1.988.894-1.606 1.306.051.055-.219.545-.599 1.088-1.621 2.315.312 8.801 2.415 8.1.269-.09.489.028.489.263 0 .294 4.961.424 16.084.421l16.084-.005.105 15.86c.069 10.571.247 16.034.534 16.378.236.285.313.705.171.935-.142.229-.112.419.066.42.177.002.976.623 1.774 1.38.798.756 1.555 1.272 1.681 1.146.127-.127.552-.091.947.079 1.08.467 1.742.556 1.525.205-.106-.172.437-.416 1.208-.541 1.623-.263 4.055-2.523 3.852-3.579-.073-.38.015-.692.196-.692.181-.001.329-5.502.329-12.225 0-6.722.095-12.378.212-12.567.116-.19.093-1.747-.051-3.46-.145-1.714-.222-3.164-.171-3.223.05-.059 7.308-.117 16.128-.128 9.627-.012 16.13-.172 16.271-.399.128-.208.406-.271.616-.141.56.346 2.759-2.157 2.496-2.842-.122-.318-.023-.578.22-.578.604 0 .572-3.707-.037-4.316-.264-.264-.343-.48-.175-.48.605 0-2.365-2.432-3.242-2.655-.494-.126-.899-.393-.899-.594 0-.216-6.354-.321-15.584-.256l-15.585.109v-15.685c0-10.19-.139-15.684-.399-15.684-.22 0-.4-.334-.4-.743 0-.929-2.647-3.792-3.194-3.455-.221.137-.402.059-.402-.174 0-.542-3.466-.558-3.8-.017m182.022 17.975c0 .22-.253.4-.562.4-.576 0-3.9 2.584-3.665 2.85.071.081.005 1.091-.148 2.245-.157 1.189-.121 2.098.084 2.098.199 0 .289.217.2.483-.203.609 1.844 2.639 3.168 3.142 1.771.674 75.85.494 77.158-.186 2.767-1.439 4.601-6.598 2.807-7.891-.398-.287-.815-.81-.927-1.163-.112-.352-1.068-1.031-2.124-1.509l-1.921-.868h-37.035c-24.424 0-37.035.136-37.035.399m-1.119 36.844c-.264.263-.48.347-.48.186 0-.162-.539.32-1.199 1.071-.659.751-1.198 1.567-1.198 1.812 0 .246-.135.447-.3.447-.165 0-.3.809-.3 1.798s.135 1.799.3 1.799c.165 0 .3.201.3.446 0 .46 2.221 3.167 2.59 3.156.114-.003.342 0 .507.008 3.902.189 76.812.101 77.062-.093 1.282-.992 3.02-2.718 2.737-2.718-.186 0-.123-.216.141-.48.263-.264.479-1.217.479-2.118 0-.901-.216-1.854-.479-2.118-.264-.263-.327-.479-.141-.479.302 0-1.021-1.307-2.728-2.697-.877-.714-76.578-.733-77.291-.02" fill="#ececec"/>
    <path d="M277.123 12.281c31.759.269 76.801.277 76.385.013-.253-.162-20.331-.254-44.617-.206-24.286.048-38.581.135-31.768.193m110.894 4.911c.496.926.794 1.014.794.233 0-.306-.274-.661-.608-.79-.497-.19-.531-.088-.186.557M23.455 22.931c-.812.744-1.473 1.508-1.468 1.698.005.19.319-.014.699-.453.38-.44 1.135-1.204 1.679-1.698.543-.495.893-.9.777-.9-.116 0-.875.609-1.687 1.353m157.998 19.826c.012.33.176.959.365 1.399l.344.799.022-.799c.012-.44-.153-1.069-.366-1.399-.344-.533-.385-.533-.365 0M.101 57.343c.004.879.086 1.191.182.694.095-.497.092-1.216-.008-1.598-.1-.382-.179.025-.174.904m328.031 4.836c-.297.336-.461.69-.364.787.096.097.502-.185.901-.626s.563-.795.364-.786c-.199.008-.605.29-.901.625m-.405 56.702c1.638 1.801 1.898 1.801.462 0-.614-.769-1.255-1.398-1.425-1.398-.171 0 .263.629.963 1.398m-109.705 19.247c.368 1.531.559 1.676.559.424 0-.573-.187-1.158-.415-1.299-.273-.169-.322.133-.144.875m-59.206 20.613-1.174 1.299 1.299-1.174c1.211-1.094 1.482-1.423 1.174-1.423-.069 0-.653.584-1.299 1.298m-110.75 71.276c.357.358 86.2.41 86.2.053 0-.165-19.451-.3-43.224-.3-23.773 0-43.112.111-42.976.247m217.269.053c0 .165 19.42.3 43.156.3 23.737 0 43.157-.135 43.157-.3 0-.165-19.42-.3-43.156-.3-23.737 0-43.157.135-43.157.3m110.289 10.044c0 .194.462.656 1.026 1.026l1.026.672-.672-1.026c-.663-1.012-1.38-1.361-1.38-.672m-194.199 20.259c.003.421.188 1.036.411 1.365.297.438.334.276.138-.599-.329-1.469-.557-1.788-.549-.766m36.709.479c-.131.794-.073 1.167.149.945.201-.201.299-.791.217-1.311-.125-.8-.182-.744-.366.366M.101 273.926c.004.879.086 1.192.182.695.095-.497.092-1.217-.008-1.599-.1-.382-.179.025-.174.904m272.53 46.39c.272.273 13.559.221 13.833-.054.101-.1-3.024-.182-6.944-.182-3.919 0-7.019.106-6.889.236m15.481.164c0 .245 1.923.399 4.971.399 2.884 0 5.075-.168 5.219-.399.16-.259-1.595-.4-4.972-.4-3.212 0-5.218.154-5.218.4m11.189.058c0 .428 3.852.376 5.195-.071.692-.23.047-.322-2.098-.301-1.704.017-3.097.184-3.097.372m12.25.041c.289.47 17.231.368 17.523-.105.167-.27-2.738-.37-8.729-.3-4.938.058-8.896.241-8.794.405m23.514-.231c4.79.29 10.591.307 10.59.032 0-.165-2.833-.267-6.294-.226-3.462.04-5.395.128-4.296.194m-153.418 35.125c-.147.586-.19 1.142-.096 1.236.094.094.291-.308.438-.893.147-.586.191-1.142.096-1.236-.094-.095-.291.307-.438.893m36.379-.028c.329 1.469.557 1.788.549.765-.003-.421-.188-1.035-.411-1.365-.297-.438-.334-.276-.138.6" fill="#ccc"/>
    <path d="M42.458.275c.384.101 1.014.101 1.398 0 .385-.1.07-.182-.699-.182-.769 0-1.084.082-.699.182m208.491 1.723c0 .22.27.4.599.4.33 0 .6-.18.6-.4 0-.22-.27-.4-.6-.4-.329 0-.599.18-.599.4m123.077 3.663c0 .256.118.348.263.203.145-.144.504-.062.799.182.337.28.536.295.536.04 0-.223-.284-.515-.632-.649-.869-.333-.966-.311-.966.224M236.783 9.314c-.881.538-2.184 1.931-2.204 2.356-.008.155.41-.115.928-.599.518-.485 1.363-1.196 1.879-1.58 1.051-.784.604-.914-.603-.177m-72.061 1.866c.278.444.642.808.809.808.577 0 .3-.609-.505-1.112-.75-.468-.772-.446-.304.304M52.647 12.686c3.132.068 8.257.068 11.389 0 3.132-.067.569-.122-5.694-.122-6.264 0-8.827.055-5.695.122m19.188-.009c.719.089 1.797.087 2.398-.004.6-.091.013-.164-1.306-.162-1.319.003-1.81.077-1.092.166m19.344.01c8.061.061 21.368.061 29.571 0 8.203-.06 1.608-.11-14.656-.11s-22.975.05-14.915.11m195.265 0c12.38.059 32.52.059 44.756 0 12.235-.058 2.107-.106-22.509-.106-24.615 0-34.626.048-22.247.106m-115.728 4.487c.278.444.642.808.809.808.577 0 .3-.609-.505-1.112-.75-.468-.772-.446-.304.304m57.485.699c-.675.82-1.228 1.643-1.228 1.829 0 .303.727-.505 2.356-2.619 1.042-1.352.085-.682-1.128.79M7.956 21.496c-1.048 1.224-1.253 1.69-.638 1.454.311-.119.766-.656 1.011-1.194.53-1.164.449-1.22-.373-.26m368.52 1.853c.514.535 1.011.895 1.105.802.238-.239-1.199-1.773-1.661-1.773-.209 0 .041.437.556.971m3.144 4.14c0 .16.353.511.785.781.646.403.746.391.568-.073-.232-.604-1.353-1.191-1.353-.708m-158.956 3.693c-.576.922-.605 1.186-.131 1.186.321 0 .947-1.63.715-1.863-.055-.054-.317.25-.584.677m-2.482 8.378c0 .44.18.8.399.8.22 0 .4-.36.4-.8 0-.439-.18-.799-.4-.799-.219 0-.399.36-.399.799m167.432.2c0 .33.18.6.4.6.22 0 .4-.27.4-.6 0-.329-.18-.599-.4-.599-.22 0-.4.27-.4.599m1.334 8.192c0 1.648.07 2.323.156 1.499.086-.825.086-2.173 0-2.997-.086-.825-.156-.15-.156 1.498M230.17 90.686c0 29.39.137 44.816.399 44.978.266.164.4-14.847.4-44.731 0-29.72-.136-44.979-.4-44.979s-.399 15.177-.399 44.732m-61.139.2c0 29.452.136 44.579.4 44.579s.399-15.044.399-44.333c0-29.123-.137-44.416-.399-44.579-.266-.164-.4 14.715-.4 44.333M.137 52.148c.001 1.758.072 2.428.156 1.488.085-.94.083-2.379-.003-3.197-.085-.818-.154-.049-.153 1.709M399.793 90.31c0 22.747.048 32.053.107 20.679.059-11.374.059-29.985 0-41.359-.059-11.373-.107-2.068-.107 20.68m-63.329-31.169c0 .22.269.399.599.399.33 0 .599-.179.599-.399 0-.22-.269-.4-.599-.4-.33 0-.599.18-.599.4M.151 64.336c0 2.527.065 3.561.144 2.297.08-1.263.08-3.331 0-4.595-.079-1.264-.144-.23-.144 2.298m340.309.599c0 .989.164 1.798.366 1.798.201 0 .366-.809.366-1.798s-.165-1.798-.366-1.798c-.202 0-.366.809-.366 1.798m-20.353 5.264c-.973.951-1.627 1.729-1.451 1.729.39 0 3.598-3.168 3.379-3.337-.086-.066-.954.657-1.928 1.608M.173 79.321c0 5.494.056 7.797.125 5.118.069-2.68.07-7.175.001-9.99-.069-2.815-.126-.623-.126 4.872m313.161-2.361c-2.502 2.507-4.428 4.558-4.28 4.558.348 0 9.139-8.814 8.962-8.986-.074-.072-2.181 1.92-4.682 4.428M133.467 89.663c0 .33.179.711.399.846.22.136.4-.022.4-.352 0-.33-.18-.71-.4-.846-.22-.136-.399.022-.399.352m162.97 4.247c-.692.661-1.183 1.278-1.09 1.37.092.092.754-.449 1.472-1.202 1.607-1.69 1.336-1.81-.382-.168m-3.732 3.595c-1.026 1.133-.591 1.225.565.119.529-.506.782-.921.562-.921-.221 0-.728.361-1.127.802m-2.995 3.066c-.549.581-.744.972-.434.87.5-.164 1.961-1.951 1.582-1.934-.082.004-.598.483-1.148 1.064m-2.675 2.762-1.121 1.036 1.299-.863c1.189-.791 1.577-1.208 1.121-1.208-.098 0-.682.466-1.299 1.035m-3.078 2.969c-.857.883-1.486 1.662-1.399 1.732.088.069.913-.653 1.834-1.606.921-.953 1.551-1.733 1.399-1.732-.152 0-.977.723-1.834 1.606m56.503 9.982c0 .879.179 1.598.399 1.598.22 0 .4-.719.4-1.598 0-.879-.18-1.599-.4-1.599-.22 0-.399.72-.399 1.599m-1.998 4.995c-.274.329-.746.599-1.048.599-.303 0-.551.18-.551.4 0 .656.606.459 1.836-.599.639-.549.958-.999.711-.999-.248 0-.675.269-.948.599m-52.577.79c-.676.512-.688.584-.094.596.371.007.794-.179.939-.414.435-.704-.024-.803-.845-.182m-3.867.89c.494.096 1.304.096 1.798 0 .495-.095.09-.173-.899-.173s-1.394.078-.899.173m51.548 0c.495.096 1.304.096 1.799 0 .494-.095.09-.173-.899-.173s-1.394.078-.9.173m53.371 11.507c.002 1.318.077 1.81.166 1.091.089-.718.087-1.797-.004-2.397-.091-.601-.164-.013-.162 1.306m-168.755 7.169c0 .316.18.687.399.823.22.135.4-.124.4-.576 0-.453-.18-.823-.4-.823-.219 0-.399.259-.399.576m167.432.023c0 .33.18.6.4.6.22 0 .4-.27.4-.6 0-.329-.18-.599-.4-.599-.22 0-.4.27-.4.599M15.532 146.79c.245.295.327.655.182.799-.144.145-.053.263.203.263.535 0 .558-.097.224-.966-.133-.348-.425-.632-.648-.632-.255 0-.241.199.039.536m368.564-.057c-.564.564-.627 1.119-.127 1.119.195 0 .447-.359.562-.799.244-.933.206-.961-.435-.32m-1.967 4.016c-.834 1.079-.955 1.491-.371 1.267.319-.123.672-.57.783-.995.234-.897.127-.968-.412-.272m-144.275 4.371c.199.597 1.107.926 1.107.401 0-.215-.285-.5-.633-.633-.389-.15-.572-.06-.474.232m-215.571 2.123c.479.9 2.892 3.296 2.892 2.872 0-.151-.747-1.038-1.659-1.973-.913-.934-1.468-1.339-1.233-.899m354.173.967c-1.425 1.37-1.918 2.03-1.514 2.03.064 0 .911-.809 1.881-1.798 2.169-2.21 1.881-2.391-.367-.232m-366.101 5.127c.488.714 1.09 1.298 1.337 1.298.264 0 .212-.205-.127-.499-.317-.275-.919-.859-1.338-1.299-.559-.587-.525-.454.128.5m379.375-.609c-.888 1.146-.976 1.646-.138.782.494-.509.816-1.008.715-1.109-.101-.1-.361.047-.577.327m-375.481 5.104c.587.66 1.2 1.199 1.362 1.199.162 0-.21-.539-.826-1.199-.616-.659-1.229-1.199-1.362-1.199s.238.54.826 1.199m34.702 1.199c.136.22.776.4 1.422.4.647 0 1.175-.18 1.175-.4 0-.22-.64-.4-1.422-.4-.846 0-1.322.162-1.175.4m3.201.007c.339.549 80.378.538 80.717-.011.167-.27-13.14-.399-40.355-.392-26.453.007-40.519.148-40.362.403m81.914-.007c.136.22.585.4.999.4.414 0 .863-.18.999-.4.144-.234-.27-.4-.999-.4s-1.144.166-.999.4m129.67 0c0 .264 15.318.4 45.155.4 29.837 0 45.155-.136 45.155-.4s-15.318-.4-45.155-.4c-29.837 0-45.155.136-45.155.4m-106.293 6.394c0 .5.424.5 1.198 0 .485-.314.428-.389-.299-.394-.495-.003-.899.174-.899.394m-15.185 5.594c0 .22.269.4.599.4.33 0 .6-.18.6-.4 0-.22-.27-.4-.6-.4-.33 0-.599.18-.599.4m113.686 0c.136.22.697.4 1.246.4.564 0 .892-.174.752-.4-.136-.22-.696-.4-1.246-.4-.564 0-.891.174-.752.4m104.096 0c0 .22.36.4.799.4.44 0 .799-.18.799-.4 0-.22-.359-.4-.799-.4-.439 0-.799.18-.799.4m-318.082.4c0 .219.46.399 1.023.399.58 0 .915-.173.775-.399-.136-.22-.596-.4-1.022-.4-.427 0-.776.18-.776.4m96.504 0c-.146.236.294.397 1.075.393 1.001-.005 1.176-.1.723-.393-.777-.502-1.488-.502-1.798 0m120.479 0c0 .219.54.399 1.199.399s1.199-.18 1.199-.399c0-.22-.54-.4-1.199-.4s-1.199.18-1.199.4m97.303 0c-.141.227.203.399.799.399.596 0 .94-.172.799-.399-.136-.22-.495-.4-.799-.4-.304 0-.663.18-.799.4M44.26 217.665c.497.096 1.217.092 1.599-.008.382-.1-.025-.178-.904-.174-.879.005-1.192.087-.695.182m92.903-.007c.384.101 1.014.101 1.398 0 .385-.1.07-.183-.699-.183-.769 0-1.084.083-.699.183m124.48.007c.497.096 1.216.092 1.598-.008.382-.1-.024-.178-.903-.174-.879.005-1.192.087-.695.182m92.902-.007c.385.101 1.014.101 1.399 0 .385-.1.07-.183-.699-.183-.769 0-1.084.083-.7.183m-314.985.524c0 .22.36.399.8.399.439 0 .799-.179.799-.399 0-.22-.36-.4-.799-.4-.44 0-.8.18-.8.4m101.899 0c0 .22.269.399.599.399.33 0 .599-.179.599-.399 0-.22-.269-.4-.599-.4-.33 0-.599.18-.599.4m115.684 0c.136.22.506.399.823.399.316 0 .575-.179.575-.399 0-.22-.37-.4-.822-.4-.453 0-.712.18-.576.4m101.698 0c0 .22.36.399.799.399.44 0 .8-.179.8-.399 0-.22-.36-.4-.8-.4-.439 0-.799.18-.799.4m-331.968 3.861c-.818.33-.566.877.3.65.439-.115.799-.368.799-.562 0-.381-.312-.406-1.099-.088m345.155.092c0 .196.284.466.632.599.978.376 1.107.294.567-.356-.552-.665-1.199-.796-1.199-.243m9.59 5.991c0 .194.495.655 1.099 1.023l1.099.669-.882-.774c-.485-.425-.77-.885-.633-1.022.138-.138.04-.25-.216-.25-.257 0-.467.159-.467.354M233.54 229.97c-.769.769-1.248 1.399-1.064 1.399.184 0 .944-.63 1.69-1.399.745-.769 1.224-1.399 1.064-1.399-.16 0-.921.63-1.69 1.399m-190.583.599c-.136.22.123.4.576.4.452 0 .823-.18.823-.4 0-.219-.259-.399-.576-.399-.317 0-.687.18-.823.399m6.693-.113c.605.092 1.594.092 2.198 0 .605-.092.11-.166-1.099-.166s-1.703.074-1.099.166m3.996-.011c.385.101 1.014.101 1.399 0 .385-.1.07-.182-.699-.182-.77 0-1.084.082-.7.182m6.794.016c.824.086 2.172.086 2.997 0 .824-.086.149-.157-1.499-.157-1.648 0-2.323.071-1.498.157m7.403.002c.94.084 2.378.083 3.197-.003.818-.086.049-.155-1.709-.153-1.759.001-2.428.072-1.488.156m6.782.001c1.154.081 3.042.081 4.196 0 1.154-.08.21-.146-2.098-.146-2.307 0-3.251.066-2.098.146m13.801.002c1.272.079 3.25.078 4.396-.002 1.146-.081.105-.146-2.313-.145-2.417.001-3.355.067-2.083.147m10.982-.007c.718.089 1.797.088 2.397-.004.601-.091.013-.164-1.305-.161-1.319.002-1.81.076-1.092.165m8.998.007c1.272.079 3.25.078 4.396-.002 1.146-.081.105-.146-2.312-.145-2.418.001-3.356.067-2.084.147m7.778-.014c.494.095 1.304.095 1.798 0 .495-.095.09-.173-.899-.173s-1.394.078-.899.173m4.795 0c.495.095 1.304.095 1.798 0 .495-.095.09-.173-.899-.173s-1.393.078-.899.173m6.793.01c.934.085 2.463.085 3.397 0 .934-.084.17-.153-1.698-.153-1.869 0-2.633.069-1.699.153m9.89.107c-.14.228.204.4.8.4.595 0 .939-.172.799-.4-.136-.219-.496-.399-.799-.399-.304 0-.664.18-.8.399m122.877 0c0 .22.36.4.8.4.439 0 .799-.18.799-.4 0-.219-.36-.399-.799-.399-.44 0-.8.18-.8.399m28.502-.1c11.171.059 29.333.059 40.36 0 11.027-.059 1.888-.107-20.31-.107s-31.22.048-20.05.107m66.204.1c0 .22.449.4.999.4.549 0 .999-.18.999-.4 0-.219-.45-.399-.999-.399-.55 0-.999.18-.999.399m-210.59 1.556c0 .357.94.842 1.631.842.202 0 .367-.199.367-.442 0-.244-.269-.339-.599-.213-.33.127-.599.056-.599-.157s-.18-.387-.4-.387c-.22 0-.4.161-.4.357m85.874.822c-.572.56-1.181 1.289-1.352 1.618-.172.33.377-.068 1.219-.885.843-.817 1.451-1.546 1.352-1.619-.099-.074-.648.325-1.219.886m23.517-.903c-.385.1-.699.368-.699.595 0 .228.284.304.632.171.347-.133.797-.243.999-.243.202 0 .367-.179.367-.399 0-.416-.135-.429-1.299-.124m-84.615 1.377c.329.3.858.815 1.174 1.144.445.465.438.38-.034-.377-.335-.538-.864-1.053-1.175-1.145-.455-.135-.448-.061.035.378m-158.242 1.414-.999 1.021 1.099-.691c.604-.38 1.099-.851 1.099-1.045 0-.484-.06-.448-1.199.715m376.423-.683c0 .212.405.598.899.857.895.469.896.467.138-.385-.845-.953-1.037-1.04-1.037-.472m-14.385 4.01c.235.439.629.799.875.799s.122-.36-.276-.799c-.398-.44-.791-.799-.875-.799-.084 0 .041.359.276.799m-217.383-.104c0 .462 1.535 1.899 1.773 1.661.094-.094-.267-.591-.801-1.106-.535-.514-.972-.764-.972-.555m70.173.337c-.15.389-.061.572.231.475.598-.2.927-1.108.401-1.108-.214 0-.499.285-.632.633m17.07.373c-.478.546-.747.986-.599.979.367-.018 2.067-1.456 2.067-1.749 0-.51-.641-.174-1.468.77m-4.452 4.535c-.289.183-.785.833-1.102 1.444-.511.986-.508 1.054.026.61.332-.275.603-.683.603-.906 0-.224.315-.646.699-.938.771-.585.607-.738-.226-.21m-222.931 8.298c.138.139.072.588-.148.999-.27.506-.266.747.014.747.228 0 .414-.165.414-.367 0-.202.109-.652.243-.999.143-.373.033-.632-.267-.632-.28 0-.395.113-.256.252m165.315 5.765c0 .453.18.712.4.576.219-.136.399-.506.399-.823 0-.316-.18-.576-.399-.576-.22 0-.4.371-.4.823m-167.433.376c0 .44.18.799.4.799.22 0 .4-.359.4-.799 0-.439-.18-.799-.4-.799-.22 0-.4.36-.4.799m204.596-.2c0 .33.18.6.399.6.22 0 .4-.27.4-.6 0-.329-.18-.599-.4-.599-.219 0-.399.27-.399.599m167.645-.082c-.171.394-.199.828-.062.965.406.406.733-.164.546-.951-.166-.698-.187-.699-.484-.014m-167.952 3.079c0 .77.082 1.084.183.7.1-.385.1-1.014 0-1.399-.101-.384-.183-.07-.183.699m-49.244.024c0 .453.18.712.4.576.22-.136.4-.506.4-.823 0-.317-.18-.576-.4-.576-.22 0-.4.371-.4.823m61.945-.523c.017.876.781 1.457.787.599.003-.494-.174-.899-.394-.899-.22 0-.397.135-.393.3m-217.68 4.096c0 .989.078 1.393.173.899.095-.495.095-1.304 0-1.798-.095-.495-.173-.09-.173.899m374.031.599c.003 1.099.081 1.501.173.894.092-.608.089-1.507-.006-1.998-.094-.492-.17.005-.167 1.104m-156.491-1.132c-.443.444-.318 89.565.127 89.839.256.159.396-15.429.403-44.931.005-24.846-.052-45.174-.127-45.174-.075 0-.256.12-.403.266m-61.405 44.889c0 29.57.136 44.755.4 44.755s.399-15.185.399-44.755c0-29.571-.135-44.756-.399-44.756s-.4 15.185-.4 44.756m230.764 16.783c0 31.758.047 44.75.105 28.871.058-15.879.058-41.863 0-57.742-.058-15.88-.105-2.888-.105 28.871m-133.878-35.198c.009.861.137 1.685.283 1.831.147.147.267-.558.267-1.565s-.128-1.832-.284-1.832c-.156 0-.276.705-.266 1.566m83.409 4.844c-.943.878-1.077 1.183-.521 1.183.195 0 .648-.45 1.008-.999.795-1.212.668-1.26-.487-.184m-59.286 1.882c10.402.059 27.305.059 37.563 0 10.258-.059 1.748-.108-18.912-.108-20.659 0-29.052.049-18.651.108m-19.511 23.677c0 .219.27.399.6.399.33 0 .599-.18.599-.399 0-.22-.269-.4-.599-.4-.33 0-.6.18-.6.4m75.125-.072c0 .209.545.46 1.21.558.756.111 1.156.015 1.068-.254-.177-.542-2.278-.822-2.278-.304m-77.916 1.651c-.546.42-.873.884-.726 1.031.361.36 1.025-.089 1.531-1.034.512-.956.443-.955-.805.003m82.434.951c.153.402.278.897.278 1.099 0 .201.179.367.399.367.616 0 .474-.783-.277-1.528-.634-.628-.66-.624-.4.062m.834 3.45c.117 2.272.642 2.501.642.28 0-1.026-.162-1.865-.361-1.865-.199 0-.325.713-.281 1.585m-85.005-.919c-.421.421-.31 2.531.133 2.531.22 0 .399-.629.399-1.399 0-1.437-.072-1.592-.532-1.132m83.35 5.568c-.494.564-.689.955-.433.87.43-.143 1.812-1.918 1.48-1.902-.081.004-.552.469-1.047 1.032m-82.018-.254c0 .212.373.585.829.83.759.406.792.373.386-.386-.457-.853-1.215-1.13-1.215-.444m3.196 2.012c0 .264 13.054.4 38.362.4s38.362-.136 38.362-.4c0-.263-13.054-.399-38.362-.399s-38.362.136-38.362.399m-257.627 19.78c.003 1.099.08 1.501.172.894.092-.607.089-1.507-.005-1.998-.095-.492-.17.005-.167 1.104m.684 6.794c0 .329.18.599.4.599.22 0 .4-.27.4-.599 0-.33-.18-.6-.4-.6-.22 0-.4.27-.4.6m167.433.223c0 .452.18.712.4.576.219-.136.399-.506.399-.823 0-.317-.18-.576-.399-.576-.22 0-.4.37-.4.823m37.163-.223c0 .329.18.599.399.599.22 0 .4-.27.4-.599 0-.33-.18-.6-.4-.6-.219 0-.399.27-.399.6m13.999 2.697c-.007.384.153.699.357.699s.453.315.553.699c.142.544.193.561.229.077.026-.343-.217-.972-.54-1.399-.531-.702-.588-.709-.599-.076m-212.749 9.68c.116.301.457.642.758.758.346.133.471.008.338-.338-.116-.301-.457-.642-.758-.758-.346-.133-.471-.008-.338.338m1.351 1.498c-.005.388 4.774 5.257 4.966 5.06.083-.085-1-1.323-2.406-2.752-1.406-1.428-2.558-2.467-2.56-2.308m218.977 1.675c.978 1.247 2.681 2.823 3.176 2.938.478.11-1.605-2.055-2.986-3.104-.747-.567-.757-.558-.19.166m-81.519 1.481c-1.508 1.554-1.801 1.95-1.446 1.95.232 0 3.445-3.168 3.445-3.397 0-.462-.49-.108-1.999 1.447m-151.448-.586c0 .594 1.104 1.964 1.369 1.7.129-.129-.126-.651-.567-1.16-.441-.508-.802-.751-.802-.54m148.429 3.102c-.426.312-.669.673-.54.802s.561-.126.96-.567c.849-.938.675-1.035-.42-.235m89.535.635c.399.441.813.715.919.609.268-.269-.729-1.411-1.231-1.411-.227 0-.087.361.312.802m-17.384.752c0 .439 1.158 1.417 1.396 1.179.098-.098-.176-.481-.609-.852s-.787-.518-.787-.327m-76.324 1.443c-.54.651-.411.732.567.357.347-.133.632-.403.632-.599 0-.553-.648-.422-1.199.242M12.41 383.407c.869 1.19 4.373 4.617 4.373 4.277 0-.163-1.114-1.37-2.475-2.682-1.361-1.311-2.215-2.029-1.898-1.595m20.98-.023c.837.612 1.216.545.792-.141-.145-.234-.557-.426-.915-.426-.546 0-.526.093.123.567m114.762-.291c-.385.1-.699.36-.699.576 0 .217-.18.283-.4.147-.22-.136-.4-.044-.4.203 0 .556 1.532.121 2.308-.655.556-.556.435-.597-.809-.271m251.6 5.319c0 2.527.064 3.561.144 2.297.079-1.263.079-3.331 0-4.595-.08-1.264-.144-.23-.144 2.298m-167.919-2.842c.249.399.795.939 1.213 1.199.726.454.731.432.116-.506-.778-1.188-2.053-1.853-1.329-.693m25.51-.006c0 .193.562.462 1.248.6 2.177.435 2.616.218.75-.37-2.15-.678-1.998-.661-1.998-.23m-211.881 1.139c.718.089 1.797.087 2.397-.004.601-.091.013-.164-1.306-.162-1.318.003-1.81.077-1.091.166m89.103 0c.715.088 1.884.088 2.598 0 .714-.089.13-.162-1.299-.162-1.428 0-2.013.073-1.299.162m128.872-.003c.604.091 1.593.091 2.197 0 .605-.092.11-.167-1.099-.167-1.208 0-1.703.075-1.098.167m-27.511 2.453c.846.952 1.037 1.039 1.037.471 0-.212-.405-.597-.899-.857-.894-.469-.895-.467-.138.386m3.509 2.477c.091.276.562.648 1.045.826 1.172.434 1.109.195-.167-.642-.671-.439-.986-.505-.878-.184M68.662 399.5c12.599.059 33.099.059 45.555 0 12.455-.058 2.147-.106-22.908-.106s-35.246.048-22.647.106m228.341 0c17.967.058 47.368.058 65.335 0 17.967-.057 3.266-.104-32.668-.104s-50.634.047-32.667.104" fill="silver"/>
    <path d="M37.263 1.088c-.715.089-1.299.299-1.299.467 0 .407 2.348.048 2.626-.402.12-.195.163-.325.095-.29-.068.035-.708.137-1.422.225m8.43 11.206c-.254.161 20.273.293 45.616.293 25.342 0 45.87-.132 45.616-.293-.603-.384-90.629-.384-91.232 0m241.19 48.188c1.047 1.142 1.229 1.246 1.229.703 0-.195-.495-.67-1.099-1.057l-1.099-.703.969 1.057m-2.733 14.49c.531.686 1.045 1.175 1.143 1.087.099-.087-.335-.648-.964-1.246l-1.143-1.087.964 1.246m4.259 4.358c.528.986 2.1 2.446 2.1 1.949 0-.199-.568-.899-1.263-1.555-.857-.809-1.126-.936-.837-.394m8.494 8.375c0 .132.382.638.849 1.123l.848.882-.451-.877c-.446-.867-1.246-1.591-1.246-1.128M48.618 90.176c-.369.37-.335 1.332.048 1.332.173 0 .342-.359.375-.799.065-.858-.007-.949-.423-.533M.109 102.697c0 .989.078 1.394.173.899.095-.494.095-1.303 0-1.798-.095-.494-.173-.09-.173.899m311.752.2c.815.769 1.596 1.399 1.735 1.399.388 0-2.459-2.77-2.863-2.785-.195-.007.312.617 1.128 1.386M.093 109.091c0 .769.082 1.084.182.699.101-.384.101-1.014 0-1.398-.1-.385-.182-.07-.182.699m.016 3.996c0 .989.078 1.394.173.899.095-.494.095-1.304 0-1.798-.095-.495-.173-.09-.173.899m.025 5.195c0 1.648.071 2.322.157 1.498.086-.824.086-2.173 0-2.997-.086-.824-.157-.15-.157 1.499m333.632 4.271c.385.101 1.014.101 1.399 0 .384-.1.07-.183-.699-.183-.77 0-1.084.083-.7.183M.109 130.27c0 .989.078 1.393.173.899.095-.495.095-1.304 0-1.798-.095-.495-.173-.09-.173.899m229.435 34.465c.616.824 1.195 1.499 1.287 1.499.352 0-.63-1.445-1.497-2.203-.746-.65-.707-.523.21.704m4.222 4.45c0 .084.495.472 1.099.861l1.099.707-.761-.861c-.674-.762-1.437-1.138-1.437-.707M46.154 217.782l-1.199.305 1.075.048c.592.026 1.187-.133 1.323-.353.135-.22.191-.378.123-.352-.068.026-.663.184-1.322.352m89.816.287c.607.092 1.506.089 1.998-.005.491-.095-.006-.17-1.105-.167-1.099.003-1.501.08-.893.172m35.434 18.049c.546 1.02.788 1.082.654.167-.055-.372-.326-.753-.603-.845-.392-.131-.403.02-.051.678m-86.908 49.796c0 7.912.053 11.206.119 7.319.065-3.887.065-10.361 0-14.386-.065-4.025-.119-.845-.119 7.067M.12 282.517c0 1.209.075 1.704.166 1.099.092-.604.092-1.593 0-2.197-.091-.605-.166-.11-.166 1.098m-.006 11.789c.003 1.099.081 1.501.173.893.092-.607.089-1.506-.006-1.998-.095-.491-.17.006-.167 1.105m0 4.395c.003 1.099.081 1.501.173.894.092-.608.089-1.507-.006-1.998-.095-.492-.17.005-.167 1.104m0 5.994c.003 1.099.081 1.501.173.894.092-.608.089-1.507-.006-1.998-.095-.492-.17.005-.167 1.104m.054 10.79c0 4.395.058 6.248.13 4.117.071-2.131.072-5.728 0-7.992-.071-2.265-.13-.521-.13 3.875m58.074-.318c.494.095 1.303.095 1.798 0 .494-.095.09-.173-.899-.173s-1.394.078-.899.173m4.595.012c1.044.082 2.752.082 3.796 0s.19-.15-1.898-.15-2.942.068-1.898.15m6.793-.018c.385.1 1.014.1 1.399 0 .385-.101.07-.183-.699-.183-.77 0-1.084.082-.7.183m6.406.018c1.051.083 2.669.082 3.596-.002.928-.084.068-.151-1.91-.15-1.978.001-2.737.07-1.686.152m7.748-.021c.257.183.549.961.65 1.729.176 1.336.181 1.329.132-.173-.033-1.023-.259-1.623-.65-1.729-.409-.109-.451-.055-.132.173m23.009.003c.385.1 1.014.1 1.399 0 .384-.101.07-.183-.699-.183-.77 0-1.084.082-.7.183m-22.129 5.418c-.029.495-.082 1.378-.118 1.962-.037.584.064 1.393.223 1.798.167.424.302-.407.318-1.961.026-2.479-.304-3.88-.423-1.799m195.256-.099-6.793.229 7.492.085c4.786.054 7.493-.059 7.493-.314 0-.22-.315-.362-.699-.315-.385.047-3.757.188-7.493.315m24.576-.003c-.638.203.485.322 3.102.331 2.424.008 4.008-.138 3.873-.357-.275-.444-5.559-.424-6.975.026m24.523.087c-.107.173 3.547.301 8.12.284 4.574-.018 8.136-.097 7.916-.176-.846-.305-15.852-.406-16.036-.108M.131 328.272c.002 1.538.074 2.119.161 1.29.086-.83.085-2.088-.004-2.798-.088-.709-.159-.031-.157 1.508m84.251 3.127c0 .951.162 1.985.36 2.298.239.376.363-.208.367-1.729.003-1.264-.159-2.298-.36-2.298-.202 0-.367.778-.367 1.729M.14 335.664c0 1.868.068 2.633.153 1.699.084-.934.084-2.463 0-3.397-.085-.934-.153-.17-.153 1.698m84.313 5.395c.001 1.758.071 2.428.156 1.488.084-.94.083-2.379-.003-3.197-.086-.818-.155-.049-.153 1.709m-84.339.4c.003 1.098.081 1.501.173.893.092-.607.089-1.506-.006-1.998-.095-.491-.17.006-.167 1.105m-.021 5.394c0 .769.082 1.084.182.699.101-.384.101-1.014 0-1.398-.1-.385-.182-.07-.182.699m136.57 39.96-1.798.28 1.675.06c.921.033 1.786-.12 1.922-.34.135-.22.191-.372.123-.339-.068.033-.933.185-1.922.339m-91.808.276c.385.1 1.014.1 1.399 0 .384-.101.07-.183-.7-.183-.769 0-1.083.082-.699.183" fill="#d4d4d4"/>
    <path d="M166.429 13.124c1.137 1.339 2.428 2.012 1.736.904-.276-.443-.585-.723-.685-.622-.1.1-.557-.133-1.014-.518l-.832-.7.795.936m66.368.087c-.423.426-.586.775-.361.775.224 0 .733-.36 1.13-.799.928-1.025.25-1.004-.769.024m-61.368 5.071c0 .19.26.696.579 1.122.559.748.572.744.351-.13-.227-.901-.93-1.652-.93-.992m73.981.513c-.519.432-.754.785-.523.785.231 0 .539-.192.685-.427.145-.235.65-.584 1.122-.774.497-.2.606-.351.259-.358-.33-.007-1.024.341-1.543.774M22.756 23.077l-1.377 1.498 1.498-1.377c.824-.757 1.499-1.431 1.499-1.498 0-.305-.339-.018-1.62 1.377m268.216 41.259c.69.659 1.351 1.198 1.47 1.198.118 0-.302-.539-.934-1.198-.631-.66-1.293-1.199-1.469-1.199-.177 0 .243.539.933 1.199m4.584 4.729c.851.843 1.625 1.47 1.719 1.393.247-.2-2.452-2.926-2.896-2.926-.203 0 .326.69 1.177 1.533m42.993.474c-.469.75-.447.772.303.304.445-.278.808-.641.808-.808 0-.577-.608-.301-1.111.504m-39.576 2.986c.477.547.938.924 1.025.837.212-.212-1.189-1.834-1.583-1.834-.169 0 .082.449.558.997m3.784 3.61c.129.336.618.81 1.086 1.053.784.407.775.359-.116-.61-1.115-1.212-1.297-1.295-.97-.443m3.197 3.448c.594.62 1.173 1.036 1.285.923.113-.113-.191-.483-.676-.822-.485-.34-.797-.755-.693-.923.104-.169-.078-.306-.404-.306-.409 0-.257.35.488 1.128M130.669 85.64c0 .068.54.641 1.199 1.273 1.454 1.393 1.616 1.053.182-.381-.929-.929-1.381-1.221-1.381-.892m187.013 5.294c0 .432 3.585 3.916 3.804 3.697.106-.106-.706-1.044-1.805-2.084-1.099-1.041-1.999-1.766-1.999-1.613m5.395 5.666c.879.885 1.674 1.539 1.766 1.454.244-.224-1.625-2.149-2.565-2.643-.44-.231-.08.304.799 1.189m-224.276.778c.385.101 1.014.101 1.399 0 .384-.1.07-.182-.7-.182-.769 0-1.083.082-.699.182m227.062 2.104c.129.209.814.769 1.522 1.244l1.286.862-1.353-1.243c-1.363-1.254-1.89-1.566-1.455-.863m6.195 6.099c1.643 1.685 3.052 2.999 3.13 2.921.172-.173-4.201-4.63-5.318-5.419-.439-.311.545.813 2.188 2.498m-155.599 49.406c-.441.715-1.069 2.637-.736 2.256.441-.506 1.339-2.598 1.115-2.598-.092 0-.263.154-.379.342m-151.53 5.55c.414.485.944.764 1.179.619.273-.169.218-.328-.154-.444-.319-.099-.849-.377-1.179-.619-.329-.241-.26-.042.154.444m349.608-.127c-.488.27-1.297 1.017-1.798 1.659-.804 1.031-.689.987.987-.379 2.293-1.868 2.52-2.226.811-1.28m-343.153 4.649c.28.454 1.383.503 1.383.061 0-.173-.363-.342-.808-.375-.444-.034-.703.108-.575.314m114.612 1.668c-.122.197-.114.467.018.599.132.132.24.036.24-.214 0-.249.269-.35.599-.224.33.127.6.061.6-.145 0-.48-1.162-.493-1.457-.016m-129.811 2.706c.118.19.753.615 1.412.944.659.329 1.101.441.983.25-.118-.19-.753-.615-1.412-.944-.659-.329-1.101-.441-.983-.25m223.326 4.045c.05.26.495.621.989.804.571.211.81.189.656-.062-.134-.216-.488-.394-.787-.394-.298 0-.634-.184-.745-.409-.112-.226-.163-.198-.113.061M47.383 217.733c-.112.182 19.615.349 43.839.371 25.99.024 43.715-.105 43.244-.315-1.014-.45-86.805-.505-87.083-.056m217.552.053c-.392.256 14.86.373 44.156.339 24.615-.028 44.216-.185 43.556-.349-1.856-.463-87.003-.453-87.712.01m108.292 5.415c0 .085.539.434 1.199.775.659.341 1.198.475 1.198.298 0-.178-.539-.526-1.198-.775-.66-.249-1.199-.383-1.199-.298M8.489 238.866c-.634 1.344-.475 1.454.403.28.385-.515.562-1.022.393-1.126-.169-.104-.527.277-.796.846m217.023 1.098c-.254.548-.3.896-.102.773.527-.325 1.245-1.776.878-1.773-.173.002-.522.452-.776 1m-44.093 22.726c0 .33.179.711.399.846.22.136.4-.022.4-.352 0-.33-.18-.711-.4-.846-.22-.136-.399.022-.399.352m-96.709 8.539c-.108 6.221.048 31.045.196 31.193.115.115.209-6.924.209-15.642s-.09-15.851-.2-15.851c-.11 0-.202.135-.205.3m191.913 25.173c2.363.071 6.229.071 8.592 0 2.362-.071.429-.128-4.296-.128-4.725 0-6.658.057-4.296.128m13.986-.012c.605.092 1.594.092 2.198 0 .605-.091.11-.166-1.099-.166-1.208 0-1.703.075-1.099.166m16.413.013c7.214.062 18.902.061 25.974 0 7.072-.061 1.17-.111-13.116-.111s-20.072.05-12.858.111m-173.555 11.889c0 .595.172.94.399.799.22-.136.4-.496.4-.799 0-.304-.18-.664-.4-.799-.227-.141-.399.203-.399.799m-83.015 5.009c.269.432.62.785.78.785.483 0-.103-1.121-.708-1.353-.463-.178-.476-.078-.072.568m3.894 1.484c0 .165 6.788.3 15.085.3h15.084l-.041 2.485c-.023 1.367.111 2.39.299 2.274.391-.241.465-3.775.099-4.726-.26-.679-30.526-1.008-30.526-.333m43.308.021c.25.405 30.046.385 30.451-.021.165-.165-6.664-.299-15.175-.299-8.511 0-15.385.144-15.276.32m-13.072 10.336c-.416.416-.312 2.854.133 3.13.244.151.4-.462.4-1.575 0-1.853-.06-2.028-.533-1.555m13.086 12.72c0 3.956.06 5.521.132 3.476.073-2.044.073-5.28 0-7.192s-.133-.24-.132 3.716m-13.088 1.681c.172 7.584.459 7.799.488.365.013-3.195-.122-5.899-.299-6.009-.177-.109-.262 2.43-.189 5.644m1.334 9.066c0 .306.274.661.609.79.496.19.531.088.185-.557-.495-.926-.794-1.014-.794-.233m-61.56 29.113c.758.824 1.657 1.485 1.998 1.467.537-.027.54-.061.022-.249-.33-.119-1.229-.779-1.998-1.467l-1.399-1.249 1.377 1.498m203.193 2.03c.616.807 1.2 1.467 1.299 1.467.277 0-1.453-2.338-1.964-2.654-.25-.154.05.38.665 1.187m1.824 2.366c0 .359.191.771.426.915.685.424.752.045.14-.792-.474-.649-.566-.669-.566-.123" fill="#dcdcdc"/>
    <path d="M56.668.299c3.145.068 8.18.067 11.188 0 3.009-.068.436-.124-5.718-.123-6.154 0-8.616.055-5.47.123M89.381.3c8.61.06 22.816.06 31.568 0 8.753-.06 1.708-.11-15.654-.11-17.363 0-24.524.049-15.914.11m196.864 0c12.489.058 32.809.058 45.154 0 12.346-.059 2.127-.107-22.708-.107-24.835 0-34.936.048-22.446.107m-25.002.382c.497.096 1.217.092 1.599-.008.382-.1-.025-.178-.904-.174-.879.005-1.192.087-.695.182m94.102-.007c.384.101 1.014.101 1.398 0 .385-.1.07-.183-.699-.183-.769 0-1.084.083-.699.183M33.666 2.445c-.714.206-1.298.463-1.298.571 0 .29 2.136-.265 2.577-.67.435-.399.45-.4-1.279.099m218.282-.162c-1.224.294-1.6.841-.424.617.569-.109 1.133-.357 1.253-.55.119-.194.162-.331.094-.306-.068.026-.483.133-.923.239m-99.062 2.055c.67.566 2.559 1.242 2.559.915 0-.178-.657-.525-1.46-.772-.803-.246-1.298-.311-1.099-.143m3.757 1.835c0 .11.54.479 1.199.82.659.341 1.199.53 1.199.42 0-.11-.54-.479-1.199-.82-.659-.341-1.199-.53-1.199-.42M20.901 9.028l-1.121 1.035 1.299-.863c1.19-.79 1.577-1.208 1.121-1.208-.098 0-.682.466-1.299 1.036m356.943-.601c.326.527 1.777 1.245 1.773.878-.001-.173-.451-.522-.999-.776s-.896-.3-.774-.102m-145.288 5.859-2.586 2.697 2.697-2.586c1.484-1.422 2.698-2.636 2.698-2.697 0-.294-.407.08-2.809 2.586M15.642 12.743c-.299.189-.386.44-.196.558.191.118.694-.039 1.118-.349.863-.631.038-.817-.922-.209m367.974.244c.274.33.791.594 1.148.587.547-.011.527-.107-.125-.6-1.01-.763-1.66-.755-1.023.013m-215.12 2.597c.623.66 1.179 1.199 1.236 1.199.211 0-.913-1.807-1.3-2.092-.999-.733-.96-.191.064.893m7.207 9.82c.544.973 1.05 1.769 1.125 1.769.329 0-1.25-3.199-1.658-3.359-.251-.098-.01.618.533 1.59m63.339-1.01c-.308.494-.335.781-.072.781.229 0 .522-.278.652-.617.36-.937-.028-1.047-.58-.164m145.145 9.401c.346.345.628.825.628 1.065 0 .241.105.334.232.206.324-.323-.568-1.899-1.074-1.899-.227 0-.131.282.214.628M170.023 90.709c0 25.385.048 35.77.107 23.077.058-12.692.058-33.461 0-46.154-.059-12.692-.107-2.307-.107 23.077m11.396-44.403c0 .44.179.911.399 1.047.22.135.4-.113.4-.553 0-.439-.18-.91-.4-1.046-.22-.136-.399.113-.399.552m48.544 44.403c0 24.945.048 35.15.107 22.678.058-12.473.058-32.883 0-45.355-.059-12.473-.107-2.268-.107 22.677m157.364-41.758c.003 1.099.081 1.501.173.894.091-.608.089-1.507-.006-1.998-.095-.492-.17.005-.167 1.104m-169.545-.176c0 .672.156 1.126.346 1.008.322-.199.147-2.231-.193-2.231-.084 0-.153.551-.153 1.223m.129 6.277-.044 1.891.366-1.57c.201-.863.221-1.714.044-1.891-.177-.177-.341.529-.366 1.57m-.123 39.777c-.004 24.358.129 36.604.394 36.44.539-.334.539-71.693 0-72.528-.252-.389-.39 12.254-.394 36.088m122.326-29.568c-.03.839-.24 1.873-.468 2.298-.266.498-.273.773-.018.773.494 0 .962-2.369.721-3.644-.121-.641-.198-.454-.235.573m-56.997 8.265c2.851 2.858 5.273 5.195 5.383 5.195.11 0-2.133-2.337-4.984-5.195-2.85-2.857-5.273-5.194-5.383-5.194-.109 0 2.133 2.337 4.984 5.194m7.12 7.119c.818.838 1.394 1.647 1.28 1.798-.115.151-.085.181.065.067.151-.113.915.379 1.698 1.094.784.715.171-.001-1.361-1.591-1.533-1.591-2.873-2.892-2.978-2.892-.106 0 .477.686 1.296 1.524M51.149 85.714c-.688.393-.796.576-.349.586.358.007.874-.256 1.148-.586.608-.733.483-.733-.799 0m247.575 3.422c.866 1.003 1.657 1.761 1.756 1.685.099-.077-.61-.897-1.576-1.824l-1.757-1.684 1.577 1.823m-165.556 1.773c.004.879.086 1.192.182.695.095-.497.092-1.217-.009-1.599-.1-.382-.178.025-.173.904m175.364 8.292c.096.055 1.07.909 2.165 1.898l1.99 1.798-1.781-1.898c-.98-1.044-1.954-1.898-2.165-1.898-.21 0-.304.045-.209.1m19.196 2.263c.519.421 1.02.689 1.114.595.205-.204-1.226-1.329-1.713-1.347-.19-.007.08.331.599.752m-9.246 7.427c3.181 3.187 5.873 5.794 5.983 5.794.11 0-2.403-2.607-5.584-5.794-3.181-3.187-5.874-5.794-5.984-5.794-.109 0 2.403 2.607 5.585 5.794m-14.685-4.355c-.494.563-.689.955-.434.87.431-.144 1.812-1.918 1.481-1.902-.082.004-.553.468-1.047 1.032m-7.793 7.384c-.385.224-.699.573-.699.775 0 .542 1.101.023 1.355-.638.255-.666.253-.666-.656-.137m44.165 3.964c0 .989.078 1.394.173.899.095-.494.095-1.303 0-1.798-.095-.494-.173-.09-.173.899m-12.696 1.998c1.526 1.539 2.865 2.797 2.975 2.797.11 0-1.049-1.258-2.576-2.797-1.527-1.538-2.866-2.797-2.975-2.797-.11 0 1.049 1.259 2.576 2.797m-35.786-1.376c-.527.561-.69.918-.36.791.52-.199 1.813-1.812 1.453-1.812-.073 0-.565.459-1.093 1.021m-2.976 2.678-.799.8.999-.506c1.282-.649 1.315-.68.926-.905-.18-.104-.686.171-1.126.611m-10.973.169c.24.116.59.617.779 1.114.188.496.716 1 1.173 1.119.457.12.73.055.607-.145-.124-.199-.441-.362-.705-.362-.265 0-.659-.393-.876-.873-.217-.481-.624-.917-.904-.969-.289-.055-.321-.005-.074.116m-59.956 15.312c0 .66.183 1.199.406 1.199.223 0 .365-.539.315-1.199-.05-.659-.233-1.198-.406-1.198-.173 0-.315.539-.315 1.198m15.784 14.386c.341.659.69 1.199.775 1.199.085 0-.049-.54-.297-1.199-.249-.659-.598-1.199-.775-1.199-.177 0-.044.54.297 1.199m-229.67 2.662c.275.111.5.456.5.768 0 .311.186.566.413.566.281 0 .276-.257-.014-.799-.235-.44-.646-.785-.913-.768-.366.024-.362.081.014.233m234.63 4.863c.215.403.679.971 1.031 1.263.529.439.515.313-.078-.73-.749-1.315-1.638-1.812-.953-.533m-226.261 8.307c.177.465.952 1.353 1.721 1.973l1.399 1.127-1.398-1.574c-.768-.866-1.543-1.754-1.721-1.973-.178-.22-.178-.019-.001.447m374.788.592c-.467.936-.485 1.128-.073.786.492-.408 1.15-2.025.824-2.025-.073 0-.411.557-.751 1.239m-354.473-.06c-.247.398 1.312 1.426 1.65 1.087.108-.107-.18-.315-.639-.46-.46-.146-.732-.432-.606-.636.126-.204.139-.371.029-.371-.11 0-.305.171-.434.38m223.963 14.959c0 .085.53.232 1.178.328.648.095 1.087.025.976-.155-.198-.32-2.154-.477-2.154-.173M48.656 218.065c.497.095 1.216.092 1.598-.008.382-.1-.024-.178-.903-.174-.879.004-1.192.086-.695.182m5.79-.007c.384.1 1.014.1 1.398 0 .385-.101.07-.183-.699-.183-.769 0-1.084.082-.699.183m195.066 2.46c.167.27.037.461-.314.461-.33 0-.7.163-.823.362-.123.2.138.268.582.152 1.018-.266 1.344-.773.738-1.148-.292-.18-.361-.115-.183.173m-5.456 2.688c-1.494.81-1.403 1.148.1.37.659-.341 1.199-.705 1.199-.809 0-.257-.043-.243-1.299.439m-83.417 2.864c0 .247.585.849 1.299 1.338.954.652 1.087.686.5.127-.44-.419-1.024-1.021-1.299-1.338-.294-.339-.5-.391-.5-.127m-69.608 3.6c26.314.061 44.388.251 44.256.464-.123.199.172.258.655.131 2.709-.708-4.547-.832-45.033-.768l-44.356.07 44.478.103m196.013 0c12.269.059 32.229.059 44.355 0 12.126-.058 2.088-.106-22.308-.106s-34.317.048-22.047.106m-271.766 1.71c-.717.653-1.156 1.187-.973 1.187.182 0 .848-.539 1.479-1.198 1.469-1.533 1.185-1.527-.506.011m368.86-.208c.617.548 1.302.996 1.522.996.701 0-.016-.727-1.352-1.37l-1.291-.622 1.121.996m3.868 4.015c.546.647 1.101 1.317 1.232 1.49.132.172.238.082.236-.2-.001-.282-.556-.952-1.232-1.489l-1.229-.977.993 1.176m-230.088 4.191c.401.878 2.322 2.733 2.322 2.243 0-.096-.627-.868-1.394-1.717-1.086-1.202-1.291-1.318-.928-.526m83.011.682-.969 1.099 1.199-.999c.659-.55 1.274-1.044 1.365-1.099.092-.055-.012-.1-.23-.1s-.832.495-1.365 1.099m-60.806 14.691c.274 1.434.786 1.587.579.173-.096-.648-.308-1.178-.472-1.178-.165 0-.213.452-.107 1.005m-167.182 3.967c-.122.317-.151.901-.065 1.299.098.451.235.234.364-.576.218-1.361.076-1.702-.299-.723m217.022 49.574c0 25.274.048 35.555.107 22.846.058-12.709.058-33.389 0-45.954-.059-12.565-.107-2.167-.107 23.108m-59.94.399c0 25.275.048 35.556.107 22.847.058-12.71.058-33.389 0-45.954-.059-12.566-.107-2.167-.107 23.107m47.763-.199c-.007 29.997.125 45.154.392 45.154s.397-15.154.388-45.154c-.009-28.154-.156-45.155-.393-45.155-.236 0-.382 16.998-.387 45.155M87.912 266.571c0 .213-.405.55-.899.749-.643.259-.708.369-.228.387.369.014.947-.251 1.284-.588.338-.338.725-.593.861-.567.136.027.315-.019.397-.101.082-.082-.203-.176-.633-.209-.43-.032-.782.116-.782.329m94.007 21.741c.004.879.086 1.191.182.694.095-.497.092-1.216-.008-1.598-.1-.382-.178.025-.174.904m84.774.361c-.119.309-.153 1.163-.076 1.898.122 1.172.163 1.103.331-.561.196-1.947.123-2.324-.255-1.337m-84.782 9.429c0 .769.082 1.084.183.699.1-.384.1-1.014 0-1.398-.101-.385-.183-.07-.183.699m.035 6.394c0 1.428.073 2.012.161 1.298.089-.714.089-1.883 0-2.597-.088-.714-.161-.13-.161 1.299m-50.563-.418c.502.481 1.131.801 1.398.71.267-.09-.144-.483-.913-.874l-1.398-.71.913.874m50.563 5.612c0 1.429.073 2.013.161 1.299.089-.714.089-1.883 0-2.597-.088-.715-.161-.13-.161 1.298m-133.382-1.481c-.171.394-.199.829-.062.966.406.406.733-.164.546-.952-.165-.698-.187-.699-.484-.014m133.355 10.472c.004.879.086 1.192.182.695.095-.497.092-1.216-.008-1.598-.1-.382-.178.024-.174.903m.008 3.797c0 .989.078 1.393.173.899.095-.495.095-1.304 0-1.799-.095-.494-.173-.089-.173.9m-.008 6.193c.004.879.086 1.192.182.695.095-.497.092-1.216-.008-1.598-.1-.382-.178.024-.174.903m-84.734 7.992c-.039 4.396.062 8.201.224 8.456.161.255.245-2.353.187-5.794-.172-10.151-.337-11.217-.411-2.662m181.436-4.296c3.462.066 9.126.066 12.588 0 3.461-.067.629-.121-6.294-.121s-9.755.054-6.294.121m25.198 0c2.595.069 6.73.069 9.191-.001 2.46-.07.337-.127-4.718-.127-5.055.001-7.068.058-4.473.128m23.779 0c3.585.066 9.339.066 12.787 0 3.448-.067.514-.121-6.519-.121s-9.854.055-6.268.121m-145.652 2.898c0 1.428.073 2.013.161 1.298.089-.714.089-1.883 0-2.597-.088-.714-.161-.13-.161 1.299m-.027 4.196c.004.879.086 1.191.182.694.095-.497.092-1.216-.008-1.598-.1-.382-.178.024-.174.904m-.209 12.828c-.16.161-.291.567-.291.904 0 .45.118.495.444.169.245-.245.376-.652.292-.904-.085-.253-.285-.329-.445-.169m-23.889 25.633-1.377 1.499 1.498-1.378c1.395-1.281 1.682-1.619 1.377-1.619-.067 0-.741.674-1.498 1.498m84.558.535c.326.527 1.777 1.245 1.774.878-.002-.173-.452-.522-1-.776s-.896-.3-.774-.102M26.882 380.02c.559.44 1.123.799 1.253.799.13 0-.123-.359-.563-.799-.439-.44-1.003-.799-1.252-.799-.25 0 .003.359.562.799m205.086 4.795c.858.879 1.651 1.599 1.761 1.599.11 0-.503-.72-1.361-1.599-.859-.879-1.651-1.598-1.761-1.598-.11 0 .503.719 1.361 1.598m25.574 13.587c.136.219.641.396 1.123.393.712-.005.763-.078.276-.393-.787-.509-1.713-.509-1.399 0m-199.296.682c.497.095 1.217.092 1.599-.008.382-.1-.025-.178-.904-.174-.879.004-1.192.086-.695.182m7.196.007c.718.089 1.797.087 2.397-.004.601-.091.013-.164-1.306-.162-1.318.002-1.809.077-1.091.166m4.188-.014c.385.1 1.014.1 1.399 0 .385-.101.07-.183-.699-.183-.77 0-1.084.082-.7.183m14.993.014c.718.089 1.797.087 2.397-.004.601-.091.013-.164-1.306-.162-1.318.002-1.81.077-1.091.166m9.188-.007c.497.095 1.216.092 1.598-.008.382-.1-.024-.178-.904-.174-.879.004-1.191.086-.694.182m17.169.006c.709.088 1.968.089 2.797.003.829-.087.249-.159-1.289-.161-1.539-.001-2.217.069-1.508.158m6.802.006c1.154.081 3.042.081 4.196 0s.21-.147-2.098-.147-3.252.066-2.098.147m10.394-.012c.498.095 1.217.092 1.599-.008.382-.1-.025-.178-.904-.174-.879.004-1.192.086-.695.182m3.798.004c.607.092 1.506.089 1.998-.006.491-.094-.006-.17-1.105-.167-1.099.003-1.501.081-.893.173m136.063-.004c.497.095 1.216.092 1.598-.008.382-.1-.025-.178-.904-.174-.879.004-1.191.086-.694.182m8.986-.007c.385.1 1.014.1 1.399 0 .384-.101.07-.183-.7-.183-.769 0-1.084.082-.699.183m12.787 0c.385.1 1.014.1 1.399 0 .384-.101.07-.183-.7-.183-.769 0-1.083.082-.699.183m33.371.007c.498.095 1.217.092 1.599-.008.382-.1-.025-.178-.904-.174-.879.004-1.192.086-.695.182m7.394.004c.607.092 1.506.089 1.998-.006.491-.094-.006-.17-1.104-.167-1.099.003-1.501.081-.894.173m17.177-.011c.385.1 1.014.1 1.399 0 .384-.101.07-.183-.699-.183-.77 0-1.084.082-.7.183m4.596.006c.494.095 1.303.095 1.798 0 .494-.095.09-.173-.899-.173s-1.394.078-.899.173m31.972.001c.497.095 1.217.092 1.599-.008.382-.1-.025-.178-.904-.174-.879.004-1.192.086-.695.182" fill="#e4e4e4"/>
  </g>
</svg>
